%FSLAX44Y44*%
%MOMM*%
G71*
G01*
G75*
G04 Layer_Physical_Order=1*
G04 Layer_Color=255*
G04:AMPARAMS|DCode=10|XSize=1.1mm|YSize=1mm|CornerRadius=0.15mm|HoleSize=0mm|Usage=FLASHONLY|Rotation=0.000|XOffset=0mm|YOffset=0mm|HoleType=Round|Shape=RoundedRectangle|*
%AMROUNDEDRECTD10*
21,1,1.1000,0.7000,0,0,0.0*
21,1,0.8000,1.0000,0,0,0.0*
1,1,0.3000,0.4000,-0.3500*
1,1,0.3000,-0.4000,-0.3500*
1,1,0.3000,-0.4000,0.3500*
1,1,0.3000,0.4000,0.3500*
%
%ADD10ROUNDEDRECTD10*%
G04:AMPARAMS|DCode=11|XSize=1.1mm|YSize=1mm|CornerRadius=0.15mm|HoleSize=0mm|Usage=FLASHONLY|Rotation=270.000|XOffset=0mm|YOffset=0mm|HoleType=Round|Shape=RoundedRectangle|*
%AMROUNDEDRECTD11*
21,1,1.1000,0.7000,0,0,270.0*
21,1,0.8000,1.0000,0,0,270.0*
1,1,0.3000,-0.3500,-0.4000*
1,1,0.3000,-0.3500,0.4000*
1,1,0.3000,0.3500,0.4000*
1,1,0.3000,0.3500,-0.4000*
%
%ADD11ROUNDEDRECTD11*%
G04:AMPARAMS|DCode=12|XSize=1.4mm|YSize=3mm|CornerRadius=0.21mm|HoleSize=0mm|Usage=FLASHONLY|Rotation=270.000|XOffset=0mm|YOffset=0mm|HoleType=Round|Shape=RoundedRectangle|*
%AMROUNDEDRECTD12*
21,1,1.4000,2.5800,0,0,270.0*
21,1,0.9800,3.0000,0,0,270.0*
1,1,0.4200,-1.2900,-0.4900*
1,1,0.4200,-1.2900,0.4900*
1,1,0.4200,1.2900,0.4900*
1,1,0.4200,1.2900,-0.4900*
%
%ADD12ROUNDEDRECTD12*%
%ADD13O,0.8000X1.5000*%
%ADD14R,0.8000X1.5000*%
%ADD15O,1.5000X0.8000*%
%ADD16R,1.5000X0.8000*%
G04:AMPARAMS|DCode=17|XSize=0.35mm|YSize=0.9mm|CornerRadius=0.0525mm|HoleSize=0mm|Usage=FLASHONLY|Rotation=90.000|XOffset=0mm|YOffset=0mm|HoleType=Round|Shape=RoundedRectangle|*
%AMROUNDEDRECTD17*
21,1,0.3500,0.7950,0,0,90.0*
21,1,0.2450,0.9000,0,0,90.0*
1,1,0.1050,0.3975,0.1225*
1,1,0.1050,0.3975,-0.1225*
1,1,0.1050,-0.3975,-0.1225*
1,1,0.1050,-0.3975,0.1225*
%
%ADD17ROUNDEDRECTD17*%
G04:AMPARAMS|DCode=18|XSize=3.3mm|YSize=1.1mm|CornerRadius=0.165mm|HoleSize=0mm|Usage=FLASHONLY|Rotation=270.000|XOffset=0mm|YOffset=0mm|HoleType=Round|Shape=RoundedRectangle|*
%AMROUNDEDRECTD18*
21,1,3.3000,0.7700,0,0,270.0*
21,1,2.9700,1.1000,0,0,270.0*
1,1,0.3300,-0.3850,-1.4850*
1,1,0.3300,-0.3850,1.4850*
1,1,0.3300,0.3850,1.4850*
1,1,0.3300,0.3850,-1.4850*
%
%ADD18ROUNDEDRECTD18*%
G04:AMPARAMS|DCode=19|XSize=0.65mm|YSize=1.4mm|CornerRadius=0.0975mm|HoleSize=0mm|Usage=FLASHONLY|Rotation=0.000|XOffset=0mm|YOffset=0mm|HoleType=Round|Shape=RoundedRectangle|*
%AMROUNDEDRECTD19*
21,1,0.6500,1.2050,0,0,0.0*
21,1,0.4550,1.4000,0,0,0.0*
1,1,0.1950,0.2275,-0.6025*
1,1,0.1950,-0.2275,-0.6025*
1,1,0.1950,-0.2275,0.6025*
1,1,0.1950,0.2275,0.6025*
%
%ADD19ROUNDEDRECTD19*%
G04:AMPARAMS|DCode=20|XSize=2.7mm|YSize=1.6mm|CornerRadius=0.08mm|HoleSize=0mm|Usage=FLASHONLY|Rotation=90.000|XOffset=0mm|YOffset=0mm|HoleType=Round|Shape=RoundedRectangle|*
%AMROUNDEDRECTD20*
21,1,2.7000,1.4400,0,0,90.0*
21,1,2.5400,1.6000,0,0,90.0*
1,1,0.1600,0.7200,1.2700*
1,1,0.1600,0.7200,-1.2700*
1,1,0.1600,-0.7200,-1.2700*
1,1,0.1600,-0.7200,1.2700*
%
%ADD20ROUNDEDRECTD20*%
G04:AMPARAMS|DCode=21|XSize=2.7mm|YSize=1.6mm|CornerRadius=0mm|HoleSize=0mm|Usage=FLASHONLY|Rotation=90.000|XOffset=0mm|YOffset=0mm|HoleType=Round|Shape=Octagon|*
%AMOCTAGOND21*
4,1,8,0.4000,1.3500,-0.4000,1.3500,-0.8000,0.9500,-0.8000,-0.9500,-0.4000,-1.3500,0.4000,-1.3500,0.8000,-0.9500,0.8000,0.9500,0.4000,1.3500,0.0*
%
%ADD21OCTAGOND21*%

G04:AMPARAMS|DCode=22|XSize=0.9mm|YSize=3.05mm|CornerRadius=0.135mm|HoleSize=0mm|Usage=FLASHONLY|Rotation=90.000|XOffset=0mm|YOffset=0mm|HoleType=Round|Shape=RoundedRectangle|*
%AMROUNDEDRECTD22*
21,1,0.9000,2.7800,0,0,90.0*
21,1,0.6300,3.0500,0,0,90.0*
1,1,0.2700,1.3900,0.3150*
1,1,0.2700,1.3900,-0.3150*
1,1,0.2700,-1.3900,-0.3150*
1,1,0.2700,-1.3900,0.3150*
%
%ADD22ROUNDEDRECTD22*%
G04:AMPARAMS|DCode=23|XSize=5.55mm|YSize=6.5mm|CornerRadius=0.2775mm|HoleSize=0mm|Usage=FLASHONLY|Rotation=90.000|XOffset=0mm|YOffset=0mm|HoleType=Round|Shape=RoundedRectangle|*
%AMROUNDEDRECTD23*
21,1,5.5500,5.9450,0,0,90.0*
21,1,4.9950,6.5000,0,0,90.0*
1,1,0.5550,2.9725,2.4975*
1,1,0.5550,2.9725,-2.4975*
1,1,0.5550,-2.9725,-2.4975*
1,1,0.5550,-2.9725,2.4975*
%
%ADD23ROUNDEDRECTD23*%
G04:AMPARAMS|DCode=24|XSize=2.8mm|YSize=3.4mm|CornerRadius=0.42mm|HoleSize=0mm|Usage=FLASHONLY|Rotation=180.000|XOffset=0mm|YOffset=0mm|HoleType=Round|Shape=RoundedRectangle|*
%AMROUNDEDRECTD24*
21,1,2.8000,2.5600,0,0,180.0*
21,1,1.9600,3.4000,0,0,180.0*
1,1,0.8400,-0.9800,1.2800*
1,1,0.8400,0.9800,1.2800*
1,1,0.8400,0.9800,-1.2800*
1,1,0.8400,-0.9800,-1.2800*
%
%ADD24ROUNDEDRECTD24*%
G04:AMPARAMS|DCode=25|XSize=5.6mm|YSize=6.8mm|CornerRadius=0.28mm|HoleSize=0mm|Usage=FLASHONLY|Rotation=270.000|XOffset=0mm|YOffset=0mm|HoleType=Round|Shape=RoundedRectangle|*
%AMROUNDEDRECTD25*
21,1,5.6000,6.2400,0,0,270.0*
21,1,5.0400,6.8000,0,0,270.0*
1,1,0.5600,-3.1200,-2.5200*
1,1,0.5600,-3.1200,2.5200*
1,1,0.5600,3.1200,2.5200*
1,1,0.5600,3.1200,-2.5200*
%
%ADD25ROUNDEDRECTD25*%
G04:AMPARAMS|DCode=26|XSize=1.3mm|YSize=3.35mm|CornerRadius=0.195mm|HoleSize=0mm|Usage=FLASHONLY|Rotation=270.000|XOffset=0mm|YOffset=0mm|HoleType=Round|Shape=RoundedRectangle|*
%AMROUNDEDRECTD26*
21,1,1.3000,2.9600,0,0,270.0*
21,1,0.9100,3.3500,0,0,270.0*
1,1,0.3900,-1.4800,-0.4550*
1,1,0.3900,-1.4800,0.4550*
1,1,0.3900,1.4800,0.4550*
1,1,0.3900,1.4800,-0.4550*
%
%ADD26ROUNDEDRECTD26*%
G04:AMPARAMS|DCode=27|XSize=1.4mm|YSize=4.1mm|CornerRadius=0.21mm|HoleSize=0mm|Usage=FLASHONLY|Rotation=270.000|XOffset=0mm|YOffset=0mm|HoleType=Round|Shape=RoundedRectangle|*
%AMROUNDEDRECTD27*
21,1,1.4000,3.6800,0,0,270.0*
21,1,0.9800,4.1000,0,0,270.0*
1,1,0.4200,-1.8400,-0.4900*
1,1,0.4200,-1.8400,0.4900*
1,1,0.4200,1.8400,0.4900*
1,1,0.4200,1.8400,-0.4900*
%
%ADD27ROUNDEDRECTD27*%
G04:AMPARAMS|DCode=28|XSize=1.3mm|YSize=1mm|CornerRadius=0.15mm|HoleSize=0mm|Usage=FLASHONLY|Rotation=270.000|XOffset=0mm|YOffset=0mm|HoleType=Round|Shape=RoundedRectangle|*
%AMROUNDEDRECTD28*
21,1,1.3000,0.7000,0,0,270.0*
21,1,1.0000,1.0000,0,0,270.0*
1,1,0.3000,-0.3500,-0.5000*
1,1,0.3000,-0.3500,0.5000*
1,1,0.3000,0.3500,0.5000*
1,1,0.3000,0.3500,-0.5000*
%
%ADD28ROUNDEDRECTD28*%
%ADD29C,2.0000*%
%ADD30C,0.3000*%
%ADD31C,0.5000*%
%ADD32C,0.7500*%
%ADD33C,0.4000*%
%ADD34C,0.2000*%
%ADD35C,1.0000*%
%ADD36C,0.3100*%
%ADD37C,1.8000*%
G04:AMPARAMS|DCode=38|XSize=1.8mm|YSize=1.8mm|CornerRadius=0.27mm|HoleSize=0mm|Usage=FLASHONLY|Rotation=0.000|XOffset=0mm|YOffset=0mm|HoleType=Round|Shape=RoundedRectangle|*
%AMROUNDEDRECTD38*
21,1,1.8000,1.2600,0,0,0.0*
21,1,1.2600,1.8000,0,0,0.0*
1,1,0.5400,0.6300,-0.6300*
1,1,0.5400,-0.6300,-0.6300*
1,1,0.5400,-0.6300,0.6300*
1,1,0.5400,0.6300,0.6300*
%
%ADD38ROUNDEDRECTD38*%
%ADD39O,1.5000X2.5000*%
G04:AMPARAMS|DCode=40|XSize=1.8mm|YSize=1.8mm|CornerRadius=0.45mm|HoleSize=0mm|Usage=FLASHONLY|Rotation=90.000|XOffset=0mm|YOffset=0mm|HoleType=Round|Shape=RoundedRectangle|*
%AMROUNDEDRECTD40*
21,1,1.8000,0.9000,0,0,90.0*
21,1,0.9000,1.8000,0,0,90.0*
1,1,0.9000,0.4500,0.4500*
1,1,0.9000,0.4500,-0.4500*
1,1,0.9000,-0.4500,-0.4500*
1,1,0.9000,-0.4500,0.4500*
%
%ADD40ROUNDEDRECTD40*%
%ADD41C,2.5000*%
G04:AMPARAMS|DCode=42|XSize=2.5mm|YSize=2.5mm|CornerRadius=0.375mm|HoleSize=0mm|Usage=FLASHONLY|Rotation=180.000|XOffset=0mm|YOffset=0mm|HoleType=Round|Shape=RoundedRectangle|*
%AMROUNDEDRECTD42*
21,1,2.5000,1.7500,0,0,180.0*
21,1,1.7500,2.5000,0,0,180.0*
1,1,0.7500,-0.8750,0.8750*
1,1,0.7500,0.8750,0.8750*
1,1,0.7500,0.8750,-0.8750*
1,1,0.7500,-0.8750,-0.8750*
%
%ADD42ROUNDEDRECTD42*%
G04:AMPARAMS|DCode=43|XSize=1.8mm|YSize=1.8mm|CornerRadius=0.45mm|HoleSize=0mm|Usage=FLASHONLY|Rotation=180.000|XOffset=0mm|YOffset=0mm|HoleType=Round|Shape=RoundedRectangle|*
%AMROUNDEDRECTD43*
21,1,1.8000,0.9000,0,0,180.0*
21,1,0.9000,1.8000,0,0,180.0*
1,1,0.9000,-0.4500,0.4500*
1,1,0.9000,0.4500,0.4500*
1,1,0.9000,0.4500,-0.4500*
1,1,0.9000,-0.4500,-0.4500*
%
%ADD43ROUNDEDRECTD43*%
G04:AMPARAMS|DCode=44|XSize=6.5mm|YSize=3.6mm|CornerRadius=1.26mm|HoleSize=0mm|Usage=FLASHONLY|Rotation=180.000|XOffset=0mm|YOffset=0mm|HoleType=Round|Shape=RoundedRectangle|*
%AMROUNDEDRECTD44*
21,1,6.5000,1.0800,0,0,180.0*
21,1,3.9800,3.6000,0,0,180.0*
1,1,2.5200,-1.9900,0.5400*
1,1,2.5200,1.9900,0.5400*
1,1,2.5200,1.9900,-0.5400*
1,1,2.5200,-1.9900,-0.5400*
%
%ADD44ROUNDEDRECTD44*%
%ADD45R,1.5000X1.5000*%
%ADD46C,1.5000*%
%ADD47C,3.8000*%
%ADD48C,1.6000*%
%ADD49R,1.6000X1.6000*%
G04:AMPARAMS|DCode=50|XSize=1.4mm|YSize=1.4mm|CornerRadius=0.21mm|HoleSize=0mm|Usage=FLASHONLY|Rotation=0.000|XOffset=0mm|YOffset=0mm|HoleType=Round|Shape=RoundedRectangle|*
%AMROUNDEDRECTD50*
21,1,1.4000,0.9800,0,0,0.0*
21,1,0.9800,1.4000,0,0,0.0*
1,1,0.4200,0.4900,-0.4900*
1,1,0.4200,-0.4900,-0.4900*
1,1,0.4200,-0.4900,0.4900*
1,1,0.4200,0.4900,0.4900*
%
%ADD50ROUNDEDRECTD50*%
%ADD51C,1.4000*%
G04:AMPARAMS|DCode=52|XSize=6.5mm|YSize=3.6mm|CornerRadius=1.26mm|HoleSize=0mm|Usage=FLASHONLY|Rotation=270.000|XOffset=0mm|YOffset=0mm|HoleType=Round|Shape=RoundedRectangle|*
%AMROUNDEDRECTD52*
21,1,6.5000,1.0800,0,0,270.0*
21,1,3.9800,3.6000,0,0,270.0*
1,1,2.5200,-0.5400,-1.9900*
1,1,2.5200,-0.5400,1.9900*
1,1,2.5200,0.5400,1.9900*
1,1,2.5200,0.5400,-1.9900*
%
%ADD52ROUNDEDRECTD52*%
G04:AMPARAMS|DCode=53|XSize=1.4mm|YSize=1.4mm|CornerRadius=0.21mm|HoleSize=0mm|Usage=FLASHONLY|Rotation=90.000|XOffset=0mm|YOffset=0mm|HoleType=Round|Shape=RoundedRectangle|*
%AMROUNDEDRECTD53*
21,1,1.4000,0.9800,0,0,90.0*
21,1,0.9800,1.4000,0,0,90.0*
1,1,0.4200,0.4900,0.4900*
1,1,0.4200,0.4900,-0.4900*
1,1,0.4200,-0.4900,-0.4900*
1,1,0.4200,-0.4900,0.4900*
%
%ADD53ROUNDEDRECTD53*%
%ADD54C,8.0000*%
%ADD55C,1.0000*%
%ADD56C,1.7000*%
G36*
X1593850Y534178D02*
X1578833D01*
X1578522Y534582D01*
X1577060Y535704D01*
X1575357Y536410D01*
X1573530Y536650D01*
X1571703Y536410D01*
X1570000Y535704D01*
X1568538Y534582D01*
X1567415Y533120D01*
X1566710Y531417D01*
X1566470Y529590D01*
X1566710Y527763D01*
X1567415Y526060D01*
X1568538Y524598D01*
X1570000Y523475D01*
X1571703Y522770D01*
X1573530Y522530D01*
X1575357Y522770D01*
X1577060Y523475D01*
X1578522Y524598D01*
X1578833Y525002D01*
X1593850D01*
Y260350D01*
X1485900D01*
Y273537D01*
X1488143Y273984D01*
X1490045Y275254D01*
X1495125Y280334D01*
X1496396Y282236D01*
X1497616Y281994D01*
Y279825D01*
X1498028Y277751D01*
X1499203Y275993D01*
X1500961Y274818D01*
X1503035Y274406D01*
X1531490D01*
Y304800D01*
Y335194D01*
X1503035D01*
X1500961Y334782D01*
X1499203Y333607D01*
X1498028Y331849D01*
X1497616Y329775D01*
Y328876D01*
X1496396Y328634D01*
X1495125Y330536D01*
X1491315Y334346D01*
X1489413Y335616D01*
X1487170Y336063D01*
X1485900D01*
Y405109D01*
X1487509Y405429D01*
X1489411Y406699D01*
X1493855Y411144D01*
X1495126Y413046D01*
X1496346Y412804D01*
Y411270D01*
X1496758Y409196D01*
X1497933Y407438D01*
X1499691Y406263D01*
X1501765Y405851D01*
X1530220D01*
Y436245D01*
Y466639D01*
X1501765D01*
X1499691Y466227D01*
X1497933Y465052D01*
X1496758Y463294D01*
X1496447Y461729D01*
X1495177D01*
X1495126Y461983D01*
X1493855Y463885D01*
X1491951Y465790D01*
X1490049Y467061D01*
X1487805Y467508D01*
X1485900D01*
Y537072D01*
X1487505Y538144D01*
X1491315Y541954D01*
X1491451Y542157D01*
X1492696Y541909D01*
X1492948Y540641D01*
X1494123Y538883D01*
X1495881Y537708D01*
X1497955Y537296D01*
X1526410D01*
Y567690D01*
Y598084D01*
X1497955D01*
X1495881Y597672D01*
X1494123Y596497D01*
X1492948Y594739D01*
X1492696Y593471D01*
X1491451Y593223D01*
X1491315Y593425D01*
X1487505Y597235D01*
X1485900Y598308D01*
Y622300D01*
X1593850D01*
Y534178D01*
D02*
G37*
%LPC*%
G36*
X1566634Y434975D02*
X1532760D01*
Y405851D01*
X1561215D01*
X1563289Y406263D01*
X1565047Y407438D01*
X1566222Y409196D01*
X1566634Y411270D01*
Y434975D01*
D02*
G37*
G36*
X1567904Y303530D02*
X1534030D01*
Y274406D01*
X1562485D01*
X1564559Y274818D01*
X1566317Y275993D01*
X1567492Y277751D01*
X1567904Y279825D01*
Y303530D01*
D02*
G37*
G36*
X1562485Y335194D02*
X1534030D01*
Y306070D01*
X1567904D01*
Y329775D01*
X1567492Y331849D01*
X1566317Y333607D01*
X1564559Y334782D01*
X1562485Y335194D01*
D02*
G37*
G36*
X1557405Y598084D02*
X1528950D01*
Y568960D01*
X1562824D01*
Y592665D01*
X1562412Y594739D01*
X1561237Y596497D01*
X1559479Y597672D01*
X1557405Y598084D01*
D02*
G37*
G36*
X1562824Y566420D02*
X1528950D01*
Y537296D01*
X1557405D01*
X1559479Y537708D01*
X1561237Y538883D01*
X1562412Y540641D01*
X1562824Y542715D01*
Y566420D01*
D02*
G37*
G36*
X1561215Y466639D02*
X1532760D01*
Y437515D01*
X1566634D01*
Y461220D01*
X1566222Y463294D01*
X1565047Y465052D01*
X1563289Y466227D01*
X1561215Y466639D01*
D02*
G37*
%LPD*%
D10*
X1159510Y723520D02*
D03*
Y739520D02*
D03*
X1050290Y300610D02*
D03*
Y316610D02*
D03*
X322580Y766700D02*
D03*
Y782700D02*
D03*
X557530Y766700D02*
D03*
Y782700D02*
D03*
X271780Y1114680D02*
D03*
Y1130680D02*
D03*
X1315720Y315850D02*
D03*
Y331850D02*
D03*
X346710Y750190D02*
D03*
Y766190D02*
D03*
X1225550Y935100D02*
D03*
Y919100D02*
D03*
X444500Y750190D02*
D03*
Y766190D02*
D03*
X1051560Y531750D02*
D03*
Y547750D02*
D03*
X394970Y750190D02*
D03*
Y766190D02*
D03*
X810260Y533020D02*
D03*
Y549020D02*
D03*
X795020Y316610D02*
D03*
Y300610D02*
D03*
X1303020Y806830D02*
D03*
Y790830D02*
D03*
X538480Y750190D02*
D03*
Y766190D02*
D03*
X298450Y750190D02*
D03*
Y766190D02*
D03*
X491490Y750190D02*
D03*
Y766190D02*
D03*
X1002030Y300610D02*
D03*
Y316610D02*
D03*
X953770Y300610D02*
D03*
Y316610D02*
D03*
X906780Y300610D02*
D03*
Y316610D02*
D03*
X858520Y300610D02*
D03*
Y316610D02*
D03*
D11*
X1075310Y547370D02*
D03*
X1091310D02*
D03*
X1157860Y1014730D02*
D03*
X1173860D02*
D03*
X1316100Y448310D02*
D03*
X1300100D02*
D03*
X1316100Y580390D02*
D03*
X1300100D02*
D03*
X1414400Y422910D02*
D03*
X1430400D02*
D03*
X1414400Y290830D02*
D03*
X1430400D02*
D03*
X1248790Y1154430D02*
D03*
X1232790D02*
D03*
X1265300Y939800D02*
D03*
X1249300D02*
D03*
X289940Y642620D02*
D03*
X273940D02*
D03*
X1415670Y554990D02*
D03*
X1431670D02*
D03*
D12*
X1069470Y255270D02*
D03*
X1117470D02*
D03*
X1588640Y816610D02*
D03*
X1540640D02*
D03*
D13*
X273050Y666500D02*
D03*
X298450D02*
D03*
X273050Y730500D02*
D03*
X321310Y666500D02*
D03*
X346710D02*
D03*
X321310Y730500D02*
D03*
X466090Y666500D02*
D03*
X491490D02*
D03*
X466090Y730500D02*
D03*
X513080Y666500D02*
D03*
X538480D02*
D03*
X513080Y730500D02*
D03*
X419100D02*
D03*
X444500Y666500D02*
D03*
X419100D02*
D03*
X1026160Y506980D02*
D03*
X1051560Y442980D02*
D03*
X1026160D02*
D03*
X1027430Y337570D02*
D03*
X1002030Y401570D02*
D03*
X1027430D02*
D03*
X370840Y730500D02*
D03*
X396240Y666500D02*
D03*
X370840D02*
D03*
X979170Y336300D02*
D03*
X953770Y400300D02*
D03*
X979170D02*
D03*
X932180Y336300D02*
D03*
X906780Y400300D02*
D03*
X932180D02*
D03*
X883920Y335030D02*
D03*
X858520Y399030D02*
D03*
X883920D02*
D03*
X810260Y510790D02*
D03*
X835660Y446790D02*
D03*
X810260D02*
D03*
X836930Y335030D02*
D03*
X811530Y399030D02*
D03*
X836930D02*
D03*
D14*
X298450Y730500D02*
D03*
X346710D02*
D03*
X491490D02*
D03*
X538480D02*
D03*
X444500D02*
D03*
X1051560Y506980D02*
D03*
X1002030Y337570D02*
D03*
X396240Y730500D02*
D03*
X953770Y336300D02*
D03*
X906780D02*
D03*
X858520Y335030D02*
D03*
X835660Y510790D02*
D03*
X811530Y335030D02*
D03*
D15*
X1397250Y554990D02*
D03*
Y580390D02*
D03*
X1333250Y554990D02*
D03*
X1398520Y290830D02*
D03*
Y316230D02*
D03*
X1334520Y290830D02*
D03*
X1398520Y422910D02*
D03*
Y448310D02*
D03*
X1334520Y422910D02*
D03*
X1281680Y833120D02*
D03*
X1217680Y807720D02*
D03*
Y833120D02*
D03*
X1281680Y880110D02*
D03*
X1217680Y854710D02*
D03*
Y880110D02*
D03*
D16*
X1333250Y580390D02*
D03*
X1334520Y316230D02*
D03*
Y448310D02*
D03*
X1281680Y807720D02*
D03*
Y854710D02*
D03*
D17*
X215240Y1232050D02*
D03*
Y1225550D02*
D03*
Y1219050D02*
D03*
X196240D02*
D03*
Y1225550D02*
D03*
Y1232050D02*
D03*
D18*
X1428190Y821690D02*
D03*
X1485190D02*
D03*
D19*
X659130Y1317150D02*
D03*
X649630Y1337150D02*
D03*
X668630D02*
D03*
X496570Y1320960D02*
D03*
X487070Y1340960D02*
D03*
X506070D02*
D03*
D20*
X1270000Y975170D02*
D03*
Y1110170D02*
D03*
X1219200D02*
D03*
X1244600D02*
D03*
Y975170D02*
D03*
D21*
X1219200D02*
D03*
D22*
X1466260Y304750D02*
D03*
Y279400D02*
D03*
Y317500D02*
D03*
Y292100D02*
D03*
Y330200D02*
D03*
X1464990Y436195D02*
D03*
Y410845D02*
D03*
Y448945D02*
D03*
Y423545D02*
D03*
Y461645D02*
D03*
X1461180Y593090D02*
D03*
Y554990D02*
D03*
Y580390D02*
D03*
Y542290D02*
D03*
Y567640D02*
D03*
D23*
X1532760Y304800D02*
D03*
X1531490Y436245D02*
D03*
X1527680Y567690D02*
D03*
D24*
X1701360Y1036320D02*
D03*
X1773360D02*
D03*
D25*
X1632080Y955040D02*
D03*
D26*
X1701580Y977940D02*
D03*
Y932140D02*
D03*
D27*
X1745570Y839470D02*
D03*
X1660570D02*
D03*
D28*
X1247300Y913130D02*
D03*
X1267300D02*
D03*
X1027270Y424180D02*
D03*
X1007270D02*
D03*
X979010D02*
D03*
X959010D02*
D03*
X933290D02*
D03*
X913290D02*
D03*
X882490Y447040D02*
D03*
X862490D02*
D03*
X882490Y424180D02*
D03*
X862490D02*
D03*
D29*
X1576070Y999490D02*
X1642110D01*
X1563370Y986790D02*
X1576070Y999490D01*
X1773360D02*
Y1036320D01*
Y575310D02*
Y999490D01*
X1563370Y962660D02*
Y986790D01*
X1701360Y932360D02*
Y1036320D01*
X1482090Y709930D02*
Y1018540D01*
X1455420Y683260D02*
X1482090Y709930D01*
X1328420Y640080D02*
Y683260D01*
Y640080D02*
X1350010Y618490D01*
X1439580D01*
X1461180Y596890D01*
X1701360Y1123900D02*
X1701800Y1124340D01*
X1701360Y1036320D02*
Y1123900D01*
Y932360D02*
X1701580Y932140D01*
X1775460Y1038420D02*
Y1124340D01*
X1632080Y774570D02*
Y955040D01*
X1527680Y567690D02*
X1602740D01*
X1631950Y596900D01*
Y774700D01*
Y591820D02*
Y596900D01*
Y591820D02*
X1647190Y576580D01*
X1720850D01*
D30*
X1334400Y316350D02*
X1334520Y316230D01*
X1315720Y316350D02*
X1334400D01*
X1315720Y331350D02*
X1315720Y331350D01*
Y356870D01*
Y382270D02*
Y391400D01*
X1300600Y406520D02*
X1315720Y391400D01*
X1300600Y406520D02*
Y448310D01*
X756920Y180340D02*
X769620Y167640D01*
Y119380D02*
Y167640D01*
X755650Y105410D02*
X769620Y119380D01*
X755650Y74930D02*
Y105410D01*
X756920Y119380D02*
Y154940D01*
X742950Y105410D02*
X756920Y119380D01*
X742950Y62230D02*
Y105410D01*
Y62230D02*
X755650Y49530D01*
X731520Y180340D02*
X744220Y167640D01*
Y119380D02*
Y167640D01*
X730250Y105410D02*
X744220Y119380D01*
X730250Y74930D02*
Y105410D01*
X731520Y119380D02*
Y154940D01*
X717550Y105410D02*
X731520Y119380D01*
X717550Y62230D02*
Y105410D01*
Y62230D02*
X730250Y49530D01*
X706120Y180340D02*
X718820Y167640D01*
Y119380D02*
Y167640D01*
X704850Y105410D02*
X718820Y119380D01*
X704850Y74930D02*
Y105410D01*
X706120Y119380D02*
Y154940D01*
X692150Y105410D02*
X706120Y119380D01*
X692150Y62230D02*
Y105410D01*
Y62230D02*
X704850Y49530D01*
X680720Y180340D02*
X693420Y167640D01*
Y119380D02*
Y167640D01*
X679450Y105410D02*
X693420Y119380D01*
X679450Y74930D02*
Y105410D01*
X680720Y119380D02*
Y154940D01*
X666750Y105410D02*
X680720Y119380D01*
X666750Y62230D02*
Y105410D01*
Y62230D02*
X679450Y49530D01*
X655320Y180340D02*
X668020Y167640D01*
Y119380D02*
Y167640D01*
X654050Y105410D02*
X668020Y119380D01*
X654050Y74930D02*
Y105410D01*
X655320Y119380D02*
Y154940D01*
X641350Y105410D02*
X655320Y119380D01*
X641350Y62230D02*
Y105410D01*
Y62230D02*
X654050Y49530D01*
X629920Y180340D02*
X642620Y167640D01*
Y119380D02*
Y167640D01*
X628650Y105410D02*
X642620Y119380D01*
X628650Y74930D02*
Y105410D01*
X629920Y119380D02*
Y154940D01*
X615950Y105410D02*
X629920Y119380D01*
X615950Y62230D02*
Y105410D01*
Y62230D02*
X628650Y49530D01*
X604520Y180340D02*
X617220Y167640D01*
Y119380D02*
Y167640D01*
X603250Y105410D02*
X617220Y119380D01*
X603250Y74930D02*
Y105410D01*
X604520Y119380D02*
Y154940D01*
X590550Y105410D02*
X604520Y119380D01*
X590550Y62230D02*
Y105410D01*
Y62230D02*
X603250Y49530D01*
X579120Y180340D02*
X591820Y167640D01*
Y119380D02*
Y167640D01*
X577850Y105410D02*
X591820Y119380D01*
X577850Y74930D02*
Y105410D01*
X579120Y120650D02*
Y154940D01*
X563880Y105410D02*
X579120Y120650D01*
X563880Y63500D02*
Y105410D01*
Y63500D02*
X577850Y49530D01*
X420370Y181610D02*
X433070Y168910D01*
Y118110D02*
Y168910D01*
X420370Y105410D02*
X433070Y118110D01*
X420370Y74930D02*
Y105410D01*
Y118110D02*
Y156210D01*
X407670Y105410D02*
X420370Y118110D01*
X407670Y62230D02*
Y105410D01*
Y62230D02*
X420370Y49530D01*
X394970Y181610D02*
X407670Y168910D01*
Y118110D02*
Y168910D01*
X394970Y105410D02*
X407670Y118110D01*
X394970Y74930D02*
Y105410D01*
Y118110D02*
Y156210D01*
X382270Y105410D02*
X394970Y118110D01*
X382270Y62230D02*
Y105410D01*
Y62230D02*
X394970Y49530D01*
X369570Y181610D02*
X382270Y168910D01*
Y118110D02*
Y168910D01*
X369570Y105410D02*
X382270Y118110D01*
X369570Y74930D02*
Y105410D01*
Y118110D02*
Y156210D01*
X356870Y105410D02*
X369570Y118110D01*
X356870Y62230D02*
Y105410D01*
Y62230D02*
X369570Y49530D01*
X344170Y181610D02*
X356870Y168910D01*
Y118110D02*
Y168910D01*
X344170Y105410D02*
X356870Y118110D01*
X344170Y74930D02*
Y105410D01*
Y118110D02*
Y156210D01*
X331470Y105410D02*
X344170Y118110D01*
X331470Y62230D02*
Y105410D01*
Y62230D02*
X344170Y49530D01*
X318770Y181610D02*
X331470Y168910D01*
Y118110D02*
Y168910D01*
X318770Y105410D02*
X331470Y118110D01*
X318770Y74930D02*
Y105410D01*
Y118110D02*
Y156210D01*
X306070Y105410D02*
X318770Y118110D01*
X306070Y62230D02*
Y105410D01*
Y62230D02*
X318770Y49530D01*
X293370Y181610D02*
X305870Y169110D01*
Y123539D02*
Y169110D01*
X293370Y111039D02*
X305870Y123539D01*
X293370Y74930D02*
Y111039D01*
Y118110D02*
Y156210D01*
X280670Y105410D02*
X293370Y118110D01*
X280670Y62230D02*
Y105410D01*
Y62230D02*
X293370Y49530D01*
X267970Y181610D02*
X280670Y168910D01*
Y118110D02*
Y168910D01*
X267970Y105410D02*
X280670Y118110D01*
X267970Y74930D02*
Y105410D01*
X242570Y181610D02*
X255270Y168910D01*
Y119380D02*
Y168910D01*
X242570Y106680D02*
X255270Y119380D01*
X242570Y74930D02*
Y106680D01*
X267970Y116840D02*
Y156210D01*
X255270Y104140D02*
X267970Y116840D01*
X255270Y62230D02*
Y104140D01*
Y62230D02*
X267970Y49530D01*
X229870Y143510D02*
X242570Y156210D01*
X229870Y62230D02*
Y143510D01*
Y62230D02*
X242570Y49530D01*
X513080Y648970D02*
Y666500D01*
X466090Y648970D02*
Y666500D01*
X273050Y730500D02*
Y748030D01*
X419100Y730500D02*
Y749300D01*
X370840Y730500D02*
Y748030D01*
X1290320Y585470D02*
X1295520D01*
X1700090Y1035050D02*
X1701360Y1036320D01*
X358140Y515620D02*
Y681990D01*
X384810Y527050D02*
Y688340D01*
X582930Y466090D02*
Y529590D01*
X466090Y511810D02*
Y571500D01*
X557530Y466090D02*
Y514350D01*
X414020Y538480D02*
Y654050D01*
X406513Y661556D02*
X414020Y654050D01*
X406513Y661556D02*
Y675527D01*
X419100Y666500D02*
Y694690D01*
X407670Y706120D02*
X419100Y694690D01*
X396240Y685800D02*
X406513Y675527D01*
X405130Y466090D02*
Y571500D01*
X379730Y466090D02*
Y497840D01*
X384810Y502920D01*
X392430D01*
X396240Y506730D01*
X354330Y466090D02*
Y487680D01*
X346710Y495300D02*
X354330Y487680D01*
X346710Y495300D02*
Y666500D01*
X350440Y689690D02*
X358140Y681990D01*
X344811Y689690D02*
X350440D01*
X339811Y694690D02*
X344811Y689690D01*
X321310Y694690D02*
X339811D01*
X298450Y717550D02*
X321310Y694690D01*
X298450Y717550D02*
Y730500D01*
X378460Y694690D02*
X384810Y688340D01*
X347980Y694690D02*
X378460D01*
X396240Y685800D02*
Y730500D01*
X407670Y766190D02*
X444500D01*
X394970D02*
X407670D01*
Y706120D02*
Y766190D01*
X321310Y721360D02*
X347980Y694690D01*
X321310Y721360D02*
Y730500D01*
X396240Y506730D02*
Y666500D01*
X444500Y571500D02*
Y666500D01*
X491490Y560070D02*
Y666500D01*
X530860Y571500D02*
Y609600D01*
X538480Y617220D01*
Y666500D01*
X633730Y466090D02*
Y538480D01*
X659130Y466090D02*
Y548640D01*
X684530Y466090D02*
Y560070D01*
X709930Y466090D02*
Y571500D01*
X556450Y670649D02*
X561340Y665759D01*
Y571500D02*
Y665759D01*
X551180Y711200D02*
X556450Y705930D01*
Y670649D02*
Y705930D01*
X541569Y699770D02*
X545980Y695359D01*
X543560Y704850D02*
X550980Y697430D01*
Y560070D02*
Y697430D01*
X541020Y609600D02*
X545980Y614560D01*
Y695359D01*
X541020Y548640D02*
Y609600D01*
X608330Y466090D02*
Y610870D01*
X607060Y612140D02*
X608330Y610870D01*
X863600Y615950D02*
X867410Y612140D01*
X909320Y622300D02*
Y651510D01*
X899160Y612140D02*
X909320Y622300D01*
X867410Y612140D02*
X899160D01*
X909320Y651510D02*
X915670Y657860D01*
X934720D01*
X914400Y548640D02*
Y608330D01*
X430530Y466090D02*
Y560070D01*
X455930Y501650D02*
X466090Y511810D01*
X455930Y466090D02*
Y501650D01*
Y699770D02*
X541569D01*
X444500Y711200D02*
X455930Y699770D01*
X444500Y711200D02*
Y730500D01*
X474980Y704850D02*
X543560D01*
X466090Y713740D02*
X474980Y704850D01*
X466090Y713740D02*
Y730500D01*
X523240Y711200D02*
X551180D01*
X513080Y721360D02*
X523240Y711200D01*
X513080Y721360D02*
Y730500D01*
X298450Y750190D02*
X298450Y750190D01*
Y730500D02*
Y750190D01*
X346710Y750190D02*
X346710Y750190D01*
Y730500D02*
Y750190D01*
X394970Y750190D02*
X396240Y748920D01*
Y730500D02*
Y748920D01*
X444500Y750190D02*
X444500Y750190D01*
Y730500D02*
Y750190D01*
X491490Y750190D02*
X491490Y750190D01*
Y730500D02*
Y750190D01*
X538480Y730500D02*
X538480Y730500D01*
X538480Y730500D02*
Y750190D01*
X566420Y759460D02*
X585470D01*
X559690Y766190D02*
X566420Y759460D01*
X538480Y766190D02*
X559690D01*
X491490D02*
X538480D01*
X444500D02*
X491490D01*
X346710D02*
X394970D01*
X298450D02*
X346710D01*
X321310Y645160D02*
Y666500D01*
X370840Y652780D02*
Y666500D01*
X346710D02*
Y680720D01*
X340360Y687070D02*
X346710Y680720D01*
X304800Y687070D02*
X340360D01*
X298450Y680720D02*
X304800Y687070D01*
X298450Y666500D02*
Y680720D01*
X1051560Y506980D02*
X1051560Y506980D01*
X1051560Y506980D02*
Y531750D01*
X1026160Y442980D02*
X1027270Y441870D01*
Y424180D02*
Y441870D01*
X820420Y374650D02*
X824230Y370840D01*
X803910Y374650D02*
X820420D01*
X795020Y383540D02*
X803910Y374650D01*
X824230Y321310D02*
Y370840D01*
X795020Y383540D02*
Y471170D01*
X810260Y510790D02*
X810260Y510790D01*
X810260Y510790D02*
Y533020D01*
X835660Y490220D02*
Y510790D01*
X829310Y483870D02*
X835660Y490220D01*
X807720Y483870D02*
X829310D01*
X795020Y471170D02*
X807720Y483870D01*
X819530Y316610D02*
X824230Y321310D01*
X795020Y316610D02*
X819530D01*
X799080Y335030D02*
X811530D01*
X788670Y345440D02*
X799080Y335030D01*
X788670Y345440D02*
Y504190D01*
X795270Y510790D01*
X810260D01*
X795020Y300610D02*
X858520D01*
X953770D02*
X1002030D01*
X906780D02*
X953770D01*
X858520D02*
X906780D01*
X858520Y316610D02*
X858520Y316610D01*
Y335030D01*
X906780Y316610D02*
X906780Y316610D01*
Y336300D01*
X953770Y316610D02*
X953770Y316610D01*
Y336300D01*
X1002030Y316610D02*
X1002030Y316610D01*
Y337570D01*
X1027430Y318770D02*
Y337570D01*
X821440Y383540D02*
X836930Y399030D01*
X803910Y383540D02*
X821440D01*
X800100Y387350D02*
X803910Y383540D01*
X800100Y387350D02*
Y436630D01*
X810260Y446790D01*
X835660D02*
X835910Y447040D01*
X862490D01*
X811530Y399030D02*
Y401320D01*
X834390Y424180D01*
X862490D01*
X951230Y388620D02*
X1002030D01*
X905510D02*
X951230D01*
Y397760D01*
X953770Y400300D01*
X887617Y388620D02*
X905510D01*
X906780Y389890D01*
Y400300D01*
X857250Y388030D02*
X887027D01*
X846500D02*
X857250D01*
X858520Y389300D01*
Y399030D01*
X836930Y397600D02*
Y399030D01*
Y397600D02*
X846500Y388030D01*
X887027D02*
X887617Y388620D01*
X1002030D02*
Y401570D01*
X882490Y400460D02*
Y424180D01*
Y447040D01*
Y400460D02*
X883920Y399030D01*
X882490Y424180D02*
X913290D01*
X932180Y400300D02*
X933290Y401410D01*
Y424180D01*
X959010D01*
X979010Y400460D02*
X979170Y400300D01*
X979010Y400460D02*
Y424180D01*
X1007270D01*
X1027270Y401730D02*
X1027430Y401570D01*
X1027270Y401730D02*
Y424180D01*
X1302130Y807720D02*
X1303020Y806830D01*
X1281680Y807720D02*
X1302130D01*
X1281680D02*
X1282700Y806700D01*
Y786130D02*
Y806700D01*
X1303020Y739140D02*
Y790830D01*
X1295520Y585470D02*
X1300600Y580390D01*
X289940Y642620D02*
X318770D01*
X321310Y645160D01*
X273050Y643510D02*
X273940Y642620D01*
X273050Y643510D02*
Y666500D01*
X1217680Y880110D02*
X1254760D01*
X1267300Y892650D01*
X1206500Y900050D02*
X1225550Y919100D01*
X1206500Y876300D02*
Y900050D01*
Y876300D02*
X1210310Y872490D01*
X1226820D01*
X1231900Y867410D01*
Y847340D02*
Y867410D01*
X1217680Y833120D02*
X1231900Y847340D01*
X1281680Y833120D02*
Y854710D01*
X1195070D02*
X1217680D01*
X1188720Y861060D02*
X1195070Y854710D01*
X1181100Y861060D02*
X1188720D01*
X1181100Y835660D02*
X1195070D01*
X1200150Y830580D01*
Y817880D02*
Y830580D01*
Y817880D02*
X1210310Y807720D01*
X1217680D01*
X1267300Y892650D02*
Y913130D01*
X1265300Y915130D02*
X1267300Y913130D01*
X1265300Y915130D02*
Y939800D01*
X1234440Y913130D02*
X1247300D01*
X1228470Y919100D02*
X1234440Y913130D01*
X1225550Y919100D02*
X1228470D01*
X1230250Y939800D02*
X1249300D01*
X1225550Y935100D02*
X1230250Y939800D01*
X1265300D02*
Y949070D01*
X1270000Y953770D01*
Y975170D01*
X1225550Y935100D02*
Y948690D01*
X1219200Y955040D02*
X1225550Y948690D01*
X1219200Y955040D02*
Y975170D01*
X1270000Y1110170D02*
Y1133220D01*
X1248790Y1154430D02*
X1270000Y1133220D01*
X1219200Y1110170D02*
Y1139190D01*
X1232790Y1152780D01*
Y1154430D01*
X1054100Y650240D02*
Y659130D01*
X1049020Y645160D02*
X1054100Y650240D01*
X947420Y645160D02*
X1049020D01*
X934720Y657860D02*
X947420Y645160D01*
X1054100Y633730D02*
X1130300D01*
X934720Y632460D02*
X1010920D01*
X934720Y746760D02*
X1041400D01*
X819785D02*
X934720D01*
Y759460D01*
X742950D02*
Y822960D01*
X702310Y632460D02*
X778510D01*
X1464355Y448310D02*
X1464355Y448310D01*
X1398520Y448310D02*
X1464355D01*
X1268690Y674170D02*
X1304450Y709930D01*
X564950Y674170D02*
X1268690D01*
X1403350Y709930D02*
X1430020Y683260D01*
X1315600Y580390D02*
X1315600Y580390D01*
X1333250D01*
X1334520Y448310D02*
X1334520Y448310D01*
X1315600Y448310D02*
X1334520D01*
X1408430Y290830D02*
X1414900D01*
X1398520D02*
X1408430D01*
Y302260D01*
Y422910D02*
X1414900D01*
X1398520D02*
X1408430D01*
X1407160Y554990D02*
X1414900D01*
X1397250D02*
X1407160D01*
X1464355Y448310D02*
X1464990Y448945D01*
X1464355Y422910D02*
X1464990Y423545D01*
X1459910Y579120D02*
X1461180Y580390D01*
X1466260Y292100D02*
X1466260Y292100D01*
X962660Y861060D02*
Y872490D01*
X955040Y853440D02*
X962660Y861060D01*
X337820Y859790D02*
X344170Y853440D01*
X337820Y859790D02*
Y872490D01*
X537210Y854710D02*
Y872490D01*
X535940Y853440D02*
X537210Y854710D01*
X344170Y853440D02*
X535940D01*
X764540D02*
Y872490D01*
X535940Y853440D02*
X764540D01*
X955040D01*
X490220Y872490D02*
Y948690D01*
X689610Y872490D02*
Y948690D01*
X916940Y872490D02*
Y948690D01*
X1115060Y872490D02*
Y948690D01*
X314960Y988060D02*
X391160D01*
X421640D02*
X497840D01*
X528320Y1140460D02*
X604520D01*
X635000D02*
X711200D01*
X741680Y988060D02*
X817880D01*
X848360D02*
X924560D01*
X955040Y1140460D02*
X1031240D01*
X1061720D02*
X1137920D01*
X1061720Y971550D02*
Y988060D01*
Y971550D02*
X1069340Y963930D01*
X1108710D01*
X1115060Y957580D01*
Y948690D02*
Y957580D01*
X635000Y974090D02*
Y988060D01*
Y974090D02*
X643890Y965200D01*
X683260D01*
X689610Y958850D01*
Y948690D02*
Y958850D01*
X490220Y948690D02*
Y966470D01*
X494030Y970280D01*
X518160D01*
X528320Y980440D01*
Y988060D01*
X916940Y948690D02*
Y960120D01*
X924560Y967740D01*
X947420D01*
X955040Y975360D01*
Y988060D01*
X314960Y1103630D02*
Y1115060D01*
Y1103630D02*
X322580Y1096010D01*
X416560D01*
X421640Y1101090D01*
Y1115060D01*
X988060Y872490D02*
X1008380D01*
X1014730Y878840D01*
Y1007110D01*
X1021080Y1013460D01*
X1031240D01*
X1137920D02*
Y1024890D01*
X1127760Y1035050D02*
X1137920Y1024890D01*
X1031240Y1035050D02*
X1127760D01*
X1031240Y1013460D02*
Y1035050D01*
X588010Y1013460D02*
X604520D01*
X580390Y1005840D02*
X588010Y1013460D01*
X580390Y880110D02*
Y1005840D01*
X572770Y872490D02*
X580390Y880110D01*
X562610Y872490D02*
X572770D01*
X711200Y1013460D02*
Y1024890D01*
X697230Y1038860D02*
X711200Y1024890D01*
X604520Y1038860D02*
X697230D01*
X604520Y1013460D02*
Y1038860D01*
X741680Y1115060D02*
X756920Y1099820D01*
X842010D01*
X848360Y1106170D01*
Y1115060D01*
X741680Y1057910D02*
Y1115060D01*
X723900Y1040130D02*
X741680Y1057910D01*
X723900Y1026160D02*
Y1040130D01*
X711200Y1013460D02*
X723900Y1026160D01*
X421640Y1101090D02*
X427990Y1094740D01*
X585470D01*
X604520Y1075690D01*
Y1038860D02*
Y1075690D01*
X848360Y1106170D02*
X854710Y1099820D01*
X1018540D01*
X1031240Y1087120D01*
Y1035050D02*
Y1087120D01*
X930030Y861450D02*
X939800Y871220D01*
X800980Y861450D02*
X930030D01*
X562610Y872490D02*
Y877570D01*
X552450Y887730D02*
X562610Y877570D01*
X520700Y887730D02*
X552450D01*
X513080Y880110D02*
X520700Y887730D01*
X513080Y868680D02*
Y880110D01*
X505850Y861450D02*
X513080Y868680D01*
X371230Y861450D02*
X505850D01*
X363220Y869460D02*
X371230Y861450D01*
X363220Y869460D02*
Y872490D01*
X789940D02*
X800980Y861450D01*
X977900Y891540D02*
X988060Y881380D01*
Y872490D02*
Y881380D01*
X939800Y871220D02*
Y880110D01*
X951230Y891540D01*
X977900D01*
X314960Y1140460D02*
Y1181100D01*
X322580Y1188720D01*
Y1212850D01*
X421640Y1140460D02*
Y1174750D01*
X410210Y1186180D02*
X421640Y1174750D01*
X374650Y1186180D02*
X410210D01*
X364490Y1196340D02*
X374650Y1186180D01*
X364490Y1196340D02*
Y1212850D01*
X741680Y1140460D02*
Y1188720D01*
X754380Y1201420D01*
X805180D01*
X814070Y1210310D01*
Y1236980D01*
X848360Y1140460D02*
Y1193800D01*
X853440Y1198880D01*
Y1236980D01*
X528320Y1140460D02*
Y1182370D01*
X501650Y1209040D02*
X528320Y1182370D01*
X466090Y1209040D02*
X501650D01*
X457310Y1217820D02*
X466090Y1209040D01*
X457310Y1217820D02*
Y1271663D01*
X455930Y1273043D02*
X457310Y1271663D01*
X455930Y1273043D02*
Y1276350D01*
X445770Y1286510D02*
X455930Y1276350D01*
X635000Y1140460D02*
Y1189990D01*
X613410Y1211580D02*
X635000Y1189990D01*
X534670Y1211580D02*
X613410D01*
X521970Y1224280D02*
X534670Y1211580D01*
X521970Y1224280D02*
Y1261110D01*
X955040Y1135380D02*
Y1140460D01*
X946150Y1126490D02*
X955040Y1135380D01*
X734060Y1126490D02*
X946150D01*
X722240Y1138310D02*
X734060Y1126490D01*
X641350Y1221740D02*
X704850D01*
X631190Y1231900D02*
X641350Y1221740D01*
X631190Y1231900D02*
Y1273810D01*
X618490Y1286510D02*
X631190Y1273810D01*
X722240Y1138310D02*
Y1204350D01*
X704850Y1221740D02*
X722240Y1204350D01*
X1061720Y1140460D02*
Y1192530D01*
X1049020Y1205230D02*
X1061720Y1192530D01*
X878840Y1205230D02*
X1049020D01*
X716280Y1234440D02*
X735330Y1215390D01*
X704850Y1234440D02*
X716280D01*
X694690Y1244600D02*
X704850Y1234440D01*
X694690Y1244600D02*
Y1261110D01*
X668630Y1326540D02*
Y1337150D01*
Y1326540D02*
X683150Y1312020D01*
Y1281620D02*
Y1312020D01*
Y1281620D02*
X683260Y1281510D01*
Y1272540D02*
Y1281510D01*
Y1272540D02*
X694690Y1261110D01*
X649630Y1324000D02*
Y1337150D01*
X618490Y1292860D02*
X649630Y1324000D01*
X618490Y1286510D02*
Y1292860D01*
X669290Y1286510D02*
Y1290320D01*
X659130Y1300480D02*
X669290Y1290320D01*
X659130Y1300480D02*
Y1317150D01*
X496570Y1286510D02*
Y1320960D01*
X506070Y1310030D02*
Y1340960D01*
Y1310030D02*
X510430Y1305670D01*
Y1281620D02*
Y1305670D01*
Y1281620D02*
X510540Y1281510D01*
Y1272540D02*
Y1281510D01*
Y1272540D02*
X521970Y1261110D01*
X487070Y1315110D02*
Y1340960D01*
X481330Y1309370D02*
X487070Y1315110D01*
X452120Y1309370D02*
X481330D01*
X445770Y1303020D02*
X452120Y1309370D01*
X445770Y1286510D02*
Y1303020D01*
X260550Y1234240D02*
X276860Y1217930D01*
X260550Y1234240D02*
Y1279050D01*
X276860Y1158240D02*
X284480D01*
X295910Y1169670D01*
X285550Y1279050D02*
X295910Y1268690D01*
X251460Y1183640D02*
Y1207770D01*
X246380Y1212850D02*
X251460Y1207770D01*
X246380Y1304290D02*
X257810Y1315720D01*
X279400D01*
X285550Y1309570D01*
Y1299050D02*
Y1309570D01*
X215240Y1219050D02*
X246230D01*
X246380Y1219200D01*
Y1212850D02*
Y1219200D01*
Y1304290D01*
X215240Y1225550D02*
X229870D01*
X232410Y1228090D01*
X190350Y1219050D02*
X196240D01*
X187960Y1216660D02*
X190350Y1219050D01*
X187960Y1210310D02*
Y1216660D01*
X276860Y1183640D02*
Y1210310D01*
Y1217930D01*
X295910Y1169670D02*
Y1226820D01*
Y1268690D01*
X226060Y1158240D02*
Y1183640D01*
Y1134110D02*
Y1158240D01*
Y1134110D02*
X245110Y1115060D01*
X314960D01*
X175260Y635000D02*
Y1158240D01*
X151130Y1173480D02*
X161290Y1183640D01*
X175260D01*
X200660Y1181100D02*
Y1183640D01*
X190500Y1170940D02*
X200660Y1181100D01*
X167640Y1170940D02*
X190500D01*
X73660Y839470D02*
X86360Y852170D01*
X69850Y839470D02*
X73660D01*
X200660Y1151890D02*
Y1158240D01*
X187960Y1139190D02*
X200660Y1151890D01*
X187960Y621030D02*
Y1139190D01*
X177800Y610870D02*
X187960Y621030D01*
X95250Y610870D02*
X177800D01*
X163830Y623570D02*
X175260Y635000D01*
X101600Y623570D02*
X163830D01*
X82550D02*
X86360D01*
X69850Y610870D02*
X82550Y623570D01*
X161290Y1164590D02*
X167640Y1170940D01*
X161290Y850900D02*
Y1164590D01*
X95250Y839470D02*
X149860D01*
X161290Y850900D01*
X151130Y857250D02*
Y1173480D01*
X146050Y852170D02*
X151130Y857250D01*
X175260Y1225550D02*
X196240D01*
X702627Y747712D02*
Y759460D01*
X200660Y897890D02*
Y1050290D01*
X138430Y892810D02*
Y1002420D01*
X135890Y890270D02*
X138430Y892810D01*
X95250Y890270D02*
X135890D01*
X214630Y638810D02*
Y1013460D01*
X200660Y622300D02*
Y880110D01*
X223520Y1082040D02*
X229870Y1088390D01*
X223520Y1017355D02*
Y1082040D01*
Y1017355D02*
X223670Y1017205D01*
Y665330D02*
Y1017205D01*
X226060Y415290D02*
Y417830D01*
Y288290D02*
X241300Y273050D01*
X226060Y288290D02*
Y373380D01*
X253800Y285950D02*
X266700Y273050D01*
X241300Y298450D02*
Y400050D01*
X226060Y415290D02*
X241300Y400050D01*
X253800Y285950D02*
Y371040D01*
X251460Y373380D02*
X253800Y371040D01*
X266700Y298450D02*
Y405130D01*
X254000Y417830D02*
X266700Y405130D01*
X292100Y273050D02*
Y280772D01*
X279600Y293272D02*
X292100Y280772D01*
X279600Y293272D02*
Y373180D01*
X279400Y373380D02*
X279600Y373180D01*
X292100Y298450D02*
Y405130D01*
X279400Y417830D02*
X292100Y405130D01*
X317500Y273050D02*
Y276860D01*
X304800Y289560D02*
X317500Y276860D01*
X304800Y289560D02*
Y373380D01*
X317500Y298450D02*
Y405130D01*
X304800Y417830D02*
X317500Y405130D01*
X330000Y285950D02*
Y373180D01*
X330200Y373380D01*
X330000Y285950D02*
X342900Y273050D01*
Y298450D02*
Y405130D01*
X330200Y417830D02*
X342900Y405130D01*
X355600Y285750D02*
Y373380D01*
Y285750D02*
X368300Y273050D01*
Y298450D02*
Y405130D01*
X355600Y417830D02*
X368300Y405130D01*
X381000Y285750D02*
Y373380D01*
Y285750D02*
X393700Y273050D01*
Y298450D02*
Y405130D01*
X381000Y417830D02*
X393700Y405130D01*
X406400Y285750D02*
Y373380D01*
Y285750D02*
X419100Y273050D01*
Y298450D02*
Y405130D01*
X406400Y417830D02*
X419100Y405130D01*
X431800Y285750D02*
Y373380D01*
Y285750D02*
X444500Y273050D01*
Y298450D02*
Y405130D01*
X431800Y417830D02*
X444500Y405130D01*
X457200Y285750D02*
Y373380D01*
Y285750D02*
X469900Y273050D01*
Y298450D02*
Y405130D01*
X457200Y417830D02*
X469900Y405130D01*
X482600Y285750D02*
Y373380D01*
Y285750D02*
X495300Y273050D01*
Y298450D02*
Y405130D01*
X482600Y417830D02*
X495300Y405130D01*
X508000Y285750D02*
Y373380D01*
Y285750D02*
X520700Y273050D01*
Y298450D02*
Y405130D01*
X508000Y417830D02*
X520700Y405130D01*
X533400Y285750D02*
Y373380D01*
Y285750D02*
X546100Y273050D01*
Y298450D02*
Y405130D01*
X533400Y417830D02*
X546100Y405130D01*
X558800Y285750D02*
Y373380D01*
Y285750D02*
X571500Y273050D01*
Y298450D02*
Y405130D01*
X558800Y417830D02*
X571500Y405130D01*
X584200Y285750D02*
Y373380D01*
Y285750D02*
X596900Y273050D01*
Y298450D02*
Y405130D01*
X584200Y417830D02*
X596900Y405130D01*
X609600Y285750D02*
Y373380D01*
Y285750D02*
X622300Y273050D01*
Y298450D02*
Y405130D01*
X609600Y417830D02*
X622300Y405130D01*
X635000Y285750D02*
Y373380D01*
Y285750D02*
X647700Y273050D01*
Y298450D02*
Y405130D01*
X635000Y417830D02*
X647700Y405130D01*
X660400Y285750D02*
Y373380D01*
Y285750D02*
X673100Y273050D01*
Y298450D02*
Y405130D01*
X660400Y417830D02*
X673100Y405130D01*
X685800Y285750D02*
Y373380D01*
Y285750D02*
X698500Y273050D01*
Y298450D02*
Y405130D01*
X685800Y417830D02*
X698500Y405130D01*
X711200Y285750D02*
Y373380D01*
Y285750D02*
X723900Y273050D01*
Y298450D02*
Y405130D01*
X711200Y417830D02*
X723900Y405130D01*
X236220Y701040D02*
Y915670D01*
X247650Y725170D02*
X255270Y717550D01*
X247650Y725170D02*
Y863600D01*
X165100Y687070D02*
Y816610D01*
X155140Y826570D02*
X165100Y816610D01*
X82350Y826570D02*
X155140D01*
X69850Y814070D02*
X82350Y826570D01*
X1304450Y709930D02*
X1403350D01*
X1054100Y759460D02*
X1074420Y739140D01*
X1429900Y290830D02*
X1464990D01*
X1466260Y292100D01*
X1429900Y422910D02*
X1464355D01*
X585470Y632460D02*
X661670D01*
X819785D02*
X895985D01*
X585470Y784860D02*
Y788670D01*
X603250Y806450D01*
Y822960D01*
X654050Y807720D02*
Y822960D01*
Y807720D02*
X661670Y800100D01*
Y784860D02*
Y800100D01*
X585470Y759460D02*
X598170Y746760D01*
X819785D01*
Y759460D01*
X1041400Y746760D02*
X1054100Y759460D01*
X859790Y760730D02*
Y821690D01*
X628650Y758190D02*
Y760730D01*
Y822960D01*
Y683260D02*
Y737870D01*
X742950Y684530D02*
Y737870D01*
X859790Y685800D02*
Y737870D01*
X702310Y784860D02*
Y788670D01*
X717550Y803910D01*
Y822960D01*
X767080Y796290D02*
X778510Y784860D01*
X767080Y796290D02*
Y821690D01*
X768350Y822960D01*
X819785Y784860D02*
X834390Y799465D01*
Y821690D01*
X884555Y796290D02*
X895985Y784860D01*
X884555Y796290D02*
Y821055D01*
X885190Y821690D01*
X1397250Y580390D02*
X1461180D01*
X1414900Y554990D02*
X1414900Y554990D01*
X1398520Y316230D02*
X1464990D01*
X1466260Y317500D01*
X1414900Y290830D02*
X1414900Y290830D01*
X1414900Y422910D02*
X1414900Y422910D01*
X1051560Y424180D02*
Y442980D01*
Y424180D02*
X1061720Y414020D01*
X1074420D01*
X1002030Y388620D02*
X1074420D01*
X990980Y531750D02*
X1051560D01*
X990600Y532130D02*
X990980Y531750D01*
X811150Y532130D02*
X863600D01*
X810260Y533020D02*
X811150Y532130D01*
X883920Y318770D02*
Y335030D01*
X836930Y317500D02*
Y335030D01*
X932180Y317500D02*
Y336300D01*
X979170Y317500D02*
Y336300D01*
X1314450Y554990D02*
X1333250D01*
X1314450Y422910D02*
X1334520D01*
X1314450Y290830D02*
X1334520D01*
X1009900Y506980D02*
X1026160D01*
X811530Y547750D02*
X1051560D01*
X810260Y549020D02*
X811530Y547750D01*
X797940Y549020D02*
X810260D01*
X779780Y530860D02*
X797940Y549020D01*
X779780Y308610D02*
Y530860D01*
Y308610D02*
X787780Y300610D01*
X795020D01*
X1431170Y554990D02*
X1461180D01*
X1461180Y554990D01*
X1232790Y1154430D02*
Y1200530D01*
X1226820Y1206500D02*
X1232790Y1200530D01*
X1248790Y1154430D02*
Y1203070D01*
X1252220Y1206500D01*
X1773360Y1036320D02*
X1775460Y1038420D01*
X1407160Y554990D02*
Y567690D01*
X1408430Y422910D02*
Y435610D01*
X1281680Y880110D02*
X1299210D01*
X1510030Y585340D02*
X1527680Y567690D01*
X1510030Y585340D02*
Y848360D01*
X1093470Y749300D02*
Y821690D01*
X972820Y683260D02*
Y736600D01*
X1093470Y685800D02*
Y727710D01*
X1002030Y300610D02*
X1058290D01*
X1069340Y289560D01*
X1087120Y76200D02*
Y105410D01*
X1099820Y118110D01*
Y170180D01*
X1087120Y182880D02*
X1099820Y170180D01*
Y63500D02*
X1112520Y50800D01*
X1099820Y63500D02*
Y107950D01*
X1112520Y120650D01*
Y157480D01*
Y76200D02*
Y109220D01*
X1125220Y121920D01*
Y170180D01*
X1112520Y182880D02*
X1125220Y170180D01*
X1137920Y50800D02*
Y58522D01*
X1125420Y71022D02*
X1137920Y58522D01*
X1125420Y71022D02*
Y109020D01*
X1137920Y121520D01*
Y157480D01*
Y76200D02*
Y109220D01*
X1150620Y121920D01*
Y170180D01*
X1137920Y182880D02*
X1150620Y170180D01*
Y63500D02*
X1163320Y50800D01*
X1150620Y63500D02*
Y109220D01*
X1163320Y121920D01*
Y157480D01*
Y76200D02*
Y109220D01*
X1176020Y121920D01*
Y170180D01*
X1163320Y182880D02*
X1176020Y170180D01*
X1188720Y50800D02*
Y58522D01*
X1176220Y71022D02*
X1188720Y58522D01*
X1176220Y71022D02*
Y109020D01*
X1188720Y121520D01*
Y157480D01*
Y76200D02*
Y109220D01*
X1201420Y121920D01*
Y170180D01*
X1188720Y182880D02*
X1201420Y170180D01*
Y63500D02*
X1214120Y50800D01*
X1201420Y63500D02*
Y109220D01*
X1214120Y121920D01*
Y157480D01*
Y76200D02*
Y109220D01*
X1226820Y121920D01*
Y170180D01*
X1214120Y182880D02*
X1226820Y170180D01*
Y63500D02*
X1239520Y50800D01*
X1226820Y63500D02*
Y109220D01*
X1239520Y121920D01*
Y157480D01*
Y76200D02*
Y109220D01*
X1252220Y121920D01*
Y170180D01*
X1239520Y182880D02*
X1252220Y170180D01*
Y63500D02*
X1264920Y50800D01*
X1252220Y63500D02*
Y109220D01*
X1264920Y121920D01*
Y157480D01*
Y76200D02*
Y109220D01*
X1277620Y121920D01*
Y170180D01*
X1264920Y182880D02*
X1277620Y170180D01*
Y63500D02*
X1290320Y50800D01*
X1277620Y63500D02*
Y109220D01*
X1290320Y121920D01*
Y157480D01*
Y76200D02*
Y109220D01*
X1303020Y121920D01*
Y170180D01*
X1290320Y182880D02*
X1303020Y170180D01*
X557530Y782700D02*
Y797560D01*
X322580Y782700D02*
Y798830D01*
X1051940Y547370D02*
X1075310D01*
X1051560Y547750D02*
X1051940Y547370D01*
X1091310D02*
X1106170D01*
X1050290Y316610D02*
X1070230D01*
X1159510Y708660D02*
Y723520D01*
X251460Y1137920D02*
Y1158240D01*
Y1137920D02*
X258700Y1130680D01*
X271780D01*
X1173860Y996060D02*
Y1014730D01*
X1139190D02*
X1157860D01*
X1137920Y1013460D02*
X1139190Y1014730D01*
X932180Y1241297D02*
X936345Y1245462D01*
X944676D01*
X948841Y1241297D01*
Y1224635D01*
X944676Y1220470D01*
X936345D01*
X932180Y1224635D01*
Y1241297D01*
X957172Y1224635D02*
X961337Y1220470D01*
X969668D01*
X973833Y1224635D01*
Y1241297D01*
X969668Y1245462D01*
X961337D01*
X957172Y1241297D01*
Y1237131D01*
X961337Y1232966D01*
X973833D01*
X982164D02*
X998825D01*
X1007156Y1220470D02*
X1015486D01*
X1011321D01*
Y1245462D01*
X1007156Y1241297D01*
X1027982D02*
X1032148Y1245462D01*
X1040478D01*
X1044644Y1241297D01*
Y1224635D01*
X1040478Y1220470D01*
X1032148D01*
X1027982Y1224635D01*
Y1241297D01*
X1052974Y1232966D02*
X1069636D01*
X1094628Y1220470D02*
X1077966D01*
X1094628Y1237131D01*
Y1241297D01*
X1090462Y1245462D01*
X1082132D01*
X1077966Y1241297D01*
X1102958D02*
X1107123Y1245462D01*
X1115454D01*
X1119619Y1241297D01*
Y1224635D01*
X1115454Y1220470D01*
X1107123D01*
X1102958Y1224635D01*
Y1241297D01*
X1127950Y1220470D02*
X1136281D01*
X1132115D01*
Y1245462D01*
X1127950Y1241297D01*
X1161273Y1220470D02*
Y1245462D01*
X1148777Y1232966D01*
X1165438D01*
X929894Y1349568D02*
Y1374560D01*
X942390D01*
X946555Y1370395D01*
Y1362064D01*
X942390Y1357899D01*
X929894D01*
X971547Y1370395D02*
X967382Y1374560D01*
X959051D01*
X954886Y1370395D01*
Y1353733D01*
X959051Y1349568D01*
X967382D01*
X971547Y1353733D01*
X979878Y1362064D02*
X996539D01*
X1004870Y1349568D02*
Y1374560D01*
X1017366D01*
X1021531Y1370395D01*
Y1362064D01*
X1017366Y1357899D01*
X1004870D01*
X1013200D02*
X1021531Y1349568D01*
X1042358D02*
X1034027D01*
X1029862Y1353733D01*
Y1362064D01*
X1034027Y1366229D01*
X1042358D01*
X1046523Y1362064D01*
Y1357899D01*
X1029862D01*
X1054854Y1349568D02*
Y1366229D01*
X1059019D01*
X1063184Y1362064D01*
Y1349568D01*
Y1362064D01*
X1067350Y1366229D01*
X1071515Y1362064D01*
Y1349568D01*
X1084011D02*
X1092342D01*
X1096507Y1353733D01*
Y1362064D01*
X1092342Y1366229D01*
X1084011D01*
X1079846Y1362064D01*
Y1353733D01*
X1084011Y1349568D01*
X1109003Y1370395D02*
Y1366229D01*
X1104837D01*
X1113168D01*
X1109003D01*
Y1353733D01*
X1113168Y1349568D01*
X1138160D02*
X1129829D01*
X1125664Y1353733D01*
Y1362064D01*
X1129829Y1366229D01*
X1138160D01*
X1142325Y1362064D01*
Y1357899D01*
X1125664D01*
X1192309Y1370395D02*
X1188144Y1374560D01*
X1179813D01*
X1175648Y1370395D01*
Y1366229D01*
X1179813Y1362064D01*
X1188144D01*
X1192309Y1357899D01*
Y1353733D01*
X1188144Y1349568D01*
X1179813D01*
X1175648Y1353733D01*
X1217301Y1366229D02*
X1204805D01*
X1200640Y1362064D01*
Y1353733D01*
X1204805Y1349568D01*
X1217301D01*
X1225632Y1374560D02*
Y1349568D01*
Y1362064D01*
X1229797Y1366229D01*
X1238128D01*
X1242293Y1362064D01*
Y1349568D01*
X1254789Y1366229D02*
X1263120D01*
X1267285Y1362064D01*
Y1349568D01*
X1254789D01*
X1250624Y1353733D01*
X1254789Y1357899D01*
X1267285D01*
X1275616Y1349568D02*
X1283946D01*
X1279781D01*
Y1374560D01*
X1275616D01*
X1300607Y1370395D02*
Y1366229D01*
X1296442D01*
X1304773D01*
X1300607D01*
Y1353733D01*
X1304773Y1349568D01*
X1317269Y1374560D02*
Y1349568D01*
X1329765D01*
X1333930Y1353733D01*
Y1357899D01*
Y1362064D01*
X1329765Y1366229D01*
X1317269D01*
X1346426Y1349568D02*
X1354757D01*
X1358922Y1353733D01*
Y1362064D01*
X1354757Y1366229D01*
X1346426D01*
X1342261Y1362064D01*
Y1353733D01*
X1346426Y1349568D01*
X1367253Y1366229D02*
X1383914Y1349568D01*
X1375583Y1357899D01*
X1383914Y1366229D01*
X1367253Y1349568D01*
X1417236Y1374560D02*
Y1357899D01*
X1425567Y1349568D01*
X1433898Y1357899D01*
Y1374560D01*
X1442228Y1349568D02*
X1450559D01*
X1446394D01*
Y1374560D01*
X1442228Y1370395D01*
X1463055Y1349568D02*
Y1353733D01*
X1467220D01*
Y1349568D01*
X1463055D01*
X1483882Y1370395D02*
X1488047Y1374560D01*
X1496378D01*
X1500543Y1370395D01*
Y1353733D01*
X1496378Y1349568D01*
X1488047D01*
X1483882Y1353733D01*
Y1370395D01*
X948841Y1283207D02*
X944676Y1287372D01*
X936345D01*
X932180Y1283207D01*
Y1279041D01*
X936345Y1274876D01*
X944676D01*
X948841Y1270711D01*
Y1266545D01*
X944676Y1262380D01*
X936345D01*
X932180Y1266545D01*
X973833Y1279041D02*
X961337D01*
X957172Y1274876D01*
Y1266545D01*
X961337Y1262380D01*
X973833D01*
X982164Y1287372D02*
Y1262380D01*
Y1274876D01*
X986329Y1279041D01*
X994660D01*
X998825Y1274876D01*
Y1262380D01*
X1007156D02*
X1015486D01*
X1011321D01*
Y1287372D01*
X1007156D01*
X1040478Y1262380D02*
X1032148D01*
X1027982Y1266545D01*
Y1274876D01*
X1032148Y1279041D01*
X1040478D01*
X1044644Y1274876D01*
Y1270711D01*
X1027982D01*
X1052974Y1262380D02*
X1061305D01*
X1057140D01*
Y1279041D01*
X1052974D01*
X1073801Y1262380D02*
X1086297D01*
X1090462Y1266545D01*
X1086297Y1270711D01*
X1077966D01*
X1073801Y1274876D01*
X1077966Y1279041D01*
X1090462D01*
X1098793Y1262380D02*
X1111289D01*
X1115454Y1266545D01*
X1111289Y1270711D01*
X1102958D01*
X1098793Y1274876D01*
X1102958Y1279041D01*
X1115454D01*
X1123785Y1287372D02*
Y1262380D01*
Y1274876D01*
X1127950Y1279041D01*
X1136281D01*
X1140446Y1274876D01*
Y1262380D01*
X1161273D02*
X1152942D01*
X1148777Y1266545D01*
Y1274876D01*
X1152942Y1279041D01*
X1161273D01*
X1165438Y1274876D01*
Y1270711D01*
X1148777D01*
X1173769Y1262380D02*
X1182099D01*
X1177934D01*
Y1279041D01*
X1173769D01*
X1194595Y1262380D02*
Y1279041D01*
X1198761D01*
X1202926Y1274876D01*
Y1262380D01*
Y1274876D01*
X1207091Y1279041D01*
X1211256Y1274876D01*
Y1262380D01*
X1232083D02*
X1223752D01*
X1219587Y1266545D01*
Y1274876D01*
X1223752Y1279041D01*
X1232083D01*
X1236248Y1274876D01*
Y1270711D01*
X1219587D01*
X1244579Y1279041D02*
Y1262380D01*
Y1270711D01*
X1248744Y1274876D01*
X1252910Y1279041D01*
X1257075D01*
X1311224Y1283207D02*
X1307059Y1287372D01*
X1298728D01*
X1294563Y1283207D01*
Y1266545D01*
X1298728Y1262380D01*
X1307059D01*
X1311224Y1266545D01*
Y1274876D01*
X1302894D01*
X1319555Y1262380D02*
Y1279041D01*
X1323720D01*
X1327885Y1274876D01*
Y1262380D01*
Y1274876D01*
X1332051Y1279041D01*
X1336216Y1274876D01*
Y1262380D01*
X1344547Y1287372D02*
Y1262380D01*
X1357043D01*
X1361208Y1266545D01*
Y1270711D01*
Y1274876D01*
X1357043Y1279041D01*
X1344547D01*
X1369539Y1287372D02*
Y1262380D01*
Y1274876D01*
X1386200D01*
Y1287372D01*
Y1262380D01*
X946301Y1330552D02*
X929640D01*
Y1305560D01*
X946301D01*
X929640Y1318056D02*
X937971D01*
X954632Y1322221D02*
X971293Y1305560D01*
X962963Y1313891D01*
X971293Y1322221D01*
X954632Y1305560D01*
X983789Y1326387D02*
Y1322221D01*
X979624D01*
X987954D01*
X983789D01*
Y1309725D01*
X987954Y1305560D01*
X1012946D02*
X1004616D01*
X1000451Y1309725D01*
Y1318056D01*
X1004616Y1322221D01*
X1012946D01*
X1017112Y1318056D01*
Y1313891D01*
X1000451D01*
X1025442Y1305560D02*
Y1322221D01*
X1037938D01*
X1042104Y1318056D01*
Y1305560D01*
X1067096Y1330552D02*
Y1305560D01*
X1054600D01*
X1050434Y1309725D01*
Y1318056D01*
X1054600Y1322221D01*
X1067096D01*
X1087922Y1305560D02*
X1079592D01*
X1075426Y1309725D01*
Y1318056D01*
X1079592Y1322221D01*
X1087922D01*
X1092087Y1318056D01*
Y1313891D01*
X1075426D01*
X1117079Y1330552D02*
Y1305560D01*
X1104584D01*
X1100418Y1309725D01*
Y1318056D01*
X1104584Y1322221D01*
X1117079D01*
X1150402Y1305560D02*
Y1330552D01*
X1158733Y1322221D01*
X1167063Y1330552D01*
Y1305560D01*
X1179559D02*
X1187890D01*
X1192055Y1309725D01*
Y1318056D01*
X1187890Y1322221D01*
X1179559D01*
X1175394Y1318056D01*
Y1309725D01*
X1179559Y1305560D01*
X1217047Y1330552D02*
Y1305560D01*
X1204551D01*
X1200386Y1309725D01*
Y1318056D01*
X1204551Y1322221D01*
X1217047D01*
X1237874Y1305560D02*
X1229543D01*
X1225378Y1309725D01*
Y1318056D01*
X1229543Y1322221D01*
X1237874D01*
X1242039Y1318056D01*
Y1313891D01*
X1225378D01*
X1250370Y1305560D02*
X1258700D01*
X1254535D01*
Y1330552D01*
X1250370D01*
D31*
X289940Y642620D02*
Y653670D01*
X285750Y657860D02*
X289940Y653670D01*
X285750Y657860D02*
Y932180D01*
X302260Y948690D01*
X337820D01*
X1430020Y748030D02*
Y759460D01*
X1540640Y796420D02*
Y816610D01*
X1573530Y529590D02*
X1605280D01*
X1071880Y66040D02*
X1087120Y50800D01*
X1071880Y66040D02*
Y100330D01*
X1087120Y115570D01*
Y157480D01*
X1421130Y739140D02*
X1430020Y748030D01*
X1085850Y157480D02*
X1087120D01*
X1069340Y173990D02*
X1085850Y157480D01*
X1074420Y739140D02*
X1421130D01*
X1117470Y255270D02*
X1148080D01*
X1144270Y307340D02*
Y614680D01*
X1132840Y295910D02*
X1144270Y307340D01*
X1075690Y295910D02*
X1132840D01*
X1069340Y289560D02*
X1075690Y295910D01*
X1069340Y173990D02*
Y289560D01*
D32*
X1423280Y219710D02*
Y267580D01*
X1435100Y279400D01*
X1466260D01*
X1414390Y368300D02*
Y390770D01*
X1434465Y410845D01*
X1464990D01*
X1466260Y330200D02*
X1487170D01*
X1490980Y326390D01*
Y284480D02*
Y326390D01*
X1485900Y279400D02*
X1490980Y284480D01*
X1466260Y279400D02*
X1485900D01*
X1464990Y461645D02*
X1487805D01*
X1489710Y459740D01*
Y415290D02*
Y459740D01*
X1485265Y410845D02*
X1489710Y415290D01*
X1464990Y410845D02*
X1485265D01*
X1483360Y593090D02*
X1487170Y589280D01*
Y546100D02*
Y589280D01*
X1483360Y542290D02*
X1487170Y546100D01*
X1461180Y542290D02*
X1483360D01*
X1461180Y593090D02*
X1483360D01*
D33*
X1428190Y822400D02*
Y895350D01*
X1395730Y789940D02*
X1428190Y822400D01*
X1328420Y759460D02*
X1358900Y789940D01*
X1395730D01*
D34*
X86360Y623570D02*
X101600D01*
X86360Y852170D02*
X146050D01*
D35*
X1588070Y817180D02*
Y844550D01*
Y817180D02*
X1588640Y816610D01*
D36*
X947420Y797560D02*
Y821690D01*
X934720Y784860D02*
X947420Y797560D01*
X998220D02*
Y821690D01*
Y797560D02*
X1010920Y784860D01*
X972820Y759460D02*
Y821690D01*
X1068070Y800100D02*
Y821690D01*
X1054100Y786130D02*
X1068070Y800100D01*
X1118870Y797560D02*
Y821690D01*
Y797560D02*
X1130300Y786130D01*
D37*
X1118870Y821690D02*
D03*
X1093470D02*
D03*
X998220D02*
D03*
X972820D02*
D03*
X1214120Y76200D02*
D03*
Y50800D02*
D03*
X1188720Y76200D02*
D03*
Y50800D02*
D03*
X1137920Y76200D02*
D03*
Y50800D02*
D03*
X1112520Y76200D02*
D03*
Y50800D02*
D03*
X1087120Y76200D02*
D03*
Y50800D02*
D03*
X1163320D02*
D03*
Y76200D02*
D03*
X1239520Y50800D02*
D03*
Y76200D02*
D03*
X1264920Y50800D02*
D03*
Y76200D02*
D03*
X1290320Y50800D02*
D03*
Y76200D02*
D03*
X1315720Y50800D02*
D03*
Y76200D02*
D03*
X1214120Y182880D02*
D03*
Y157480D02*
D03*
X1188720Y182880D02*
D03*
Y157480D02*
D03*
X1137920Y182880D02*
D03*
Y157480D02*
D03*
X1112520Y182880D02*
D03*
Y157480D02*
D03*
X1087120Y182880D02*
D03*
Y157480D02*
D03*
X1163320D02*
D03*
Y182880D02*
D03*
X1239520Y157480D02*
D03*
Y182880D02*
D03*
X1264920Y157480D02*
D03*
Y182880D02*
D03*
X1290320Y157480D02*
D03*
Y182880D02*
D03*
X1315720Y157480D02*
D03*
Y182880D02*
D03*
X1588770Y730250D02*
D03*
X914400Y532130D02*
D03*
X939800D02*
D03*
X965200D02*
D03*
X889000D02*
D03*
X863600D02*
D03*
X1074420Y388620D02*
D03*
X1181100Y861060D02*
D03*
X1315720Y356870D02*
D03*
X647700Y298450D02*
D03*
Y273050D02*
D03*
X622300Y298450D02*
D03*
Y273050D02*
D03*
X596900Y298450D02*
D03*
Y273050D02*
D03*
X571500Y298450D02*
D03*
Y273050D02*
D03*
X546100Y298450D02*
D03*
Y273050D02*
D03*
X520700Y298450D02*
D03*
Y273050D02*
D03*
X292100Y298450D02*
D03*
Y273050D02*
D03*
X266700Y298450D02*
D03*
Y273050D02*
D03*
X241300Y298450D02*
D03*
Y273050D02*
D03*
X317500D02*
D03*
Y298450D02*
D03*
X342900Y273050D02*
D03*
Y298450D02*
D03*
X368300Y273050D02*
D03*
Y298450D02*
D03*
X393700Y273050D02*
D03*
Y298450D02*
D03*
X419100Y273050D02*
D03*
Y298450D02*
D03*
X444500Y273050D02*
D03*
Y298450D02*
D03*
X469900Y273050D02*
D03*
Y298450D02*
D03*
X495300Y273050D02*
D03*
Y298450D02*
D03*
X673100Y273050D02*
D03*
Y298450D02*
D03*
X698500Y273050D02*
D03*
Y298450D02*
D03*
X723900Y273050D02*
D03*
Y298450D02*
D03*
X1328420Y759460D02*
D03*
X1430020D02*
D03*
X1455420D02*
D03*
Y683260D02*
D03*
X1430020D02*
D03*
X1328420D02*
D03*
X69850Y864870D02*
D03*
X95250D02*
D03*
X69850Y839470D02*
D03*
X95250D02*
D03*
X69850Y814070D02*
D03*
X95250D02*
D03*
X69850Y788670D02*
D03*
X95250D02*
D03*
X69850Y763270D02*
D03*
X95250D02*
D03*
X69850Y737870D02*
D03*
X95250D02*
D03*
X69850Y509270D02*
D03*
X95250D02*
D03*
X69850Y483870D02*
D03*
X95250D02*
D03*
X69850Y458470D02*
D03*
X95250D02*
D03*
Y534670D02*
D03*
X69850D02*
D03*
X95250Y560070D02*
D03*
X69850D02*
D03*
X95250Y585470D02*
D03*
X69850D02*
D03*
X95250Y610870D02*
D03*
X69850D02*
D03*
X95250Y636270D02*
D03*
X69850D02*
D03*
X95250Y661670D02*
D03*
X69850D02*
D03*
X95250Y687070D02*
D03*
X69850D02*
D03*
X95250Y712470D02*
D03*
X69850D02*
D03*
X95250Y890270D02*
D03*
X69850D02*
D03*
X95250Y915670D02*
D03*
X69850D02*
D03*
X95250Y941070D02*
D03*
X69850D02*
D03*
X406400Y372110D02*
D03*
X381000D02*
D03*
X304800D02*
D03*
X279400D02*
D03*
X254000D02*
D03*
X330200D02*
D03*
X355600D02*
D03*
X431800D02*
D03*
X457200D02*
D03*
X711200D02*
D03*
X685800D02*
D03*
X609600D02*
D03*
X584200D02*
D03*
X482600D02*
D03*
X508000D02*
D03*
X533400D02*
D03*
X558800D02*
D03*
X635000D02*
D03*
X660400D02*
D03*
X406400Y416560D02*
D03*
X381000D02*
D03*
X304800D02*
D03*
X279400D02*
D03*
X254000D02*
D03*
X330200D02*
D03*
X355600D02*
D03*
X431800D02*
D03*
X457200D02*
D03*
X711200D02*
D03*
X685800D02*
D03*
X609600D02*
D03*
X584200D02*
D03*
X482600D02*
D03*
X508000D02*
D03*
X533400D02*
D03*
X558800D02*
D03*
X635000D02*
D03*
X660400D02*
D03*
X1252220Y1206500D02*
D03*
X654050Y822960D02*
D03*
X628650D02*
D03*
X885190Y821690D02*
D03*
X859790D02*
D03*
X768350Y822960D02*
D03*
X742950D02*
D03*
X532130Y466090D02*
D03*
X557530D02*
D03*
X633730D02*
D03*
X659130D02*
D03*
X684530D02*
D03*
X608330D02*
D03*
X582930D02*
D03*
X506730D02*
D03*
X481330D02*
D03*
X227330D02*
D03*
X252730D02*
D03*
X328930D02*
D03*
X354330D02*
D03*
X455930D02*
D03*
X430530D02*
D03*
X405130D02*
D03*
X379730D02*
D03*
X303530D02*
D03*
X278130D02*
D03*
X471170Y181610D02*
D03*
Y156210D02*
D03*
X445770Y181610D02*
D03*
Y156210D02*
D03*
X420370Y181610D02*
D03*
Y156210D02*
D03*
X394970Y181610D02*
D03*
Y156210D02*
D03*
X318770Y181610D02*
D03*
Y156210D02*
D03*
X242570D02*
D03*
Y181610D02*
D03*
X267970Y156210D02*
D03*
Y181610D02*
D03*
X293370Y156210D02*
D03*
Y181610D02*
D03*
X344170Y156210D02*
D03*
Y181610D02*
D03*
X369570Y156210D02*
D03*
Y181610D02*
D03*
X471170Y74930D02*
D03*
Y49530D02*
D03*
X445770Y74930D02*
D03*
Y49530D02*
D03*
X420370Y74930D02*
D03*
Y49530D02*
D03*
X394970Y74930D02*
D03*
Y49530D02*
D03*
X318770Y74930D02*
D03*
Y49530D02*
D03*
X242570D02*
D03*
Y74930D02*
D03*
X267970Y49530D02*
D03*
Y74930D02*
D03*
X293370Y49530D02*
D03*
Y74930D02*
D03*
X344170Y49530D02*
D03*
Y74930D02*
D03*
X369570Y49530D02*
D03*
Y74930D02*
D03*
X807720Y180340D02*
D03*
Y154940D02*
D03*
X782320Y180340D02*
D03*
Y154940D02*
D03*
X756920Y180340D02*
D03*
Y154940D02*
D03*
X731520Y180340D02*
D03*
Y154940D02*
D03*
X655320Y180340D02*
D03*
Y154940D02*
D03*
X579120D02*
D03*
Y180340D02*
D03*
X604520Y154940D02*
D03*
Y180340D02*
D03*
X629920Y154940D02*
D03*
Y180340D02*
D03*
X680720Y154940D02*
D03*
Y180340D02*
D03*
X706120Y154940D02*
D03*
Y180340D02*
D03*
X806450Y74930D02*
D03*
Y49530D02*
D03*
X781050Y74930D02*
D03*
Y49530D02*
D03*
X755650Y74930D02*
D03*
Y49530D02*
D03*
X730250Y74930D02*
D03*
Y49530D02*
D03*
X654050Y74930D02*
D03*
Y49530D02*
D03*
X577850D02*
D03*
Y74930D02*
D03*
X603250Y49530D02*
D03*
Y74930D02*
D03*
X628650Y49530D02*
D03*
Y74930D02*
D03*
X679450Y49530D02*
D03*
Y74930D02*
D03*
X704850Y49530D02*
D03*
Y74930D02*
D03*
D38*
X1068070Y821690D02*
D03*
X947420D02*
D03*
X603250Y822960D02*
D03*
X834390Y821690D02*
D03*
X717550Y822960D02*
D03*
D39*
X1540510Y1117600D02*
D03*
X1588770D02*
D03*
X891540Y1236980D02*
D03*
X853440D02*
D03*
X814070D02*
D03*
X408940Y1212850D02*
D03*
X364490D02*
D03*
X1428750Y897890D02*
D03*
X1482090D02*
D03*
X322580Y1212850D02*
D03*
D40*
X1588770Y704850D02*
D03*
X1074420Y414020D02*
D03*
X1181100Y835660D02*
D03*
X1315720Y382270D02*
D03*
D41*
X1771650Y576580D02*
D03*
X1847850Y373380D02*
D03*
X1644650D02*
D03*
D42*
X1720850Y576580D02*
D03*
D43*
X990600Y532130D02*
D03*
X228600Y372110D02*
D03*
Y416560D02*
D03*
X1226820Y1206500D02*
D03*
X709930Y466090D02*
D03*
D44*
X1424060Y218440D02*
D03*
X1418980Y369570D02*
D03*
D45*
X276860Y1183640D02*
D03*
X618490Y1261110D02*
D03*
X445770D02*
D03*
D46*
X276860Y1158240D02*
D03*
X251460Y1183640D02*
D03*
Y1158240D02*
D03*
X226060Y1183640D02*
D03*
Y1158240D02*
D03*
X200660Y1183640D02*
D03*
Y1158240D02*
D03*
X175260Y1183640D02*
D03*
Y1158240D02*
D03*
X618490Y1286510D02*
D03*
X643890Y1261110D02*
D03*
Y1286510D02*
D03*
X669290Y1261110D02*
D03*
Y1286510D02*
D03*
X694690Y1261110D02*
D03*
Y1286510D02*
D03*
X720090Y1261110D02*
D03*
Y1286510D02*
D03*
X445770D02*
D03*
X471170Y1261110D02*
D03*
Y1286510D02*
D03*
X496570Y1261110D02*
D03*
Y1286510D02*
D03*
X521970Y1261110D02*
D03*
Y1286510D02*
D03*
X547370Y1261110D02*
D03*
Y1286510D02*
D03*
D47*
X333250Y1326150D02*
D03*
X212850D02*
D03*
D48*
X285550Y1299050D02*
D03*
X260550D02*
D03*
X285550Y1279050D02*
D03*
D49*
X260550D02*
D03*
D50*
X585470Y784860D02*
D03*
X819785D02*
D03*
X702310D02*
D03*
X848360Y1140460D02*
D03*
X741680D02*
D03*
X1137920Y988060D02*
D03*
X1031240D02*
D03*
X421640Y1140460D02*
D03*
X711200Y988060D02*
D03*
X314960Y1140460D02*
D03*
X604520Y988060D02*
D03*
X934720Y784860D02*
D03*
X1054100Y786130D02*
D03*
D51*
X585470Y759460D02*
D03*
Y657860D02*
D03*
Y632460D02*
D03*
X661670Y784860D02*
D03*
Y759460D02*
D03*
Y657860D02*
D03*
Y632460D02*
D03*
X819785Y759460D02*
D03*
Y657860D02*
D03*
Y632460D02*
D03*
X895985Y784860D02*
D03*
Y759460D02*
D03*
Y657860D02*
D03*
Y632460D02*
D03*
X702310Y759460D02*
D03*
Y657860D02*
D03*
Y632460D02*
D03*
X778510Y784860D02*
D03*
Y759460D02*
D03*
Y657860D02*
D03*
Y632460D02*
D03*
X848360Y1115060D02*
D03*
Y1013460D02*
D03*
Y988060D02*
D03*
X924560Y1140460D02*
D03*
Y1115060D02*
D03*
Y1013460D02*
D03*
Y988060D02*
D03*
X741680Y1115060D02*
D03*
Y1013460D02*
D03*
Y988060D02*
D03*
X817880Y1140460D02*
D03*
Y1115060D02*
D03*
Y1013460D02*
D03*
Y988060D02*
D03*
X988060Y872490D02*
D03*
X1089660D02*
D03*
X1115060D02*
D03*
X962660Y948690D02*
D03*
X988060D02*
D03*
X1089660D02*
D03*
X1115060D02*
D03*
X789940Y872490D02*
D03*
X891540D02*
D03*
X916940D02*
D03*
X764540Y948690D02*
D03*
X789940D02*
D03*
X891540D02*
D03*
X916940D02*
D03*
X1137920Y1013460D02*
D03*
Y1115060D02*
D03*
Y1140460D02*
D03*
X1061720Y988060D02*
D03*
Y1013460D02*
D03*
Y1115060D02*
D03*
Y1140460D02*
D03*
X1031240Y1013460D02*
D03*
Y1115060D02*
D03*
Y1140460D02*
D03*
X955040Y988060D02*
D03*
Y1013460D02*
D03*
Y1115060D02*
D03*
Y1140460D02*
D03*
X562610Y872490D02*
D03*
X664210D02*
D03*
X689610D02*
D03*
X537210Y948690D02*
D03*
X562610D02*
D03*
X664210D02*
D03*
X689610D02*
D03*
X421640Y1115060D02*
D03*
Y1013460D02*
D03*
Y988060D02*
D03*
X497840Y1140460D02*
D03*
Y1115060D02*
D03*
Y1013460D02*
D03*
Y988060D02*
D03*
X711200Y1013460D02*
D03*
Y1115060D02*
D03*
Y1140460D02*
D03*
X635000Y988060D02*
D03*
Y1013460D02*
D03*
Y1115060D02*
D03*
Y1140460D02*
D03*
X363220Y872490D02*
D03*
X464820D02*
D03*
X490220D02*
D03*
X337820Y948690D02*
D03*
X363220D02*
D03*
X464820D02*
D03*
X490220D02*
D03*
X314960Y1115060D02*
D03*
Y1013460D02*
D03*
Y988060D02*
D03*
X391160Y1140460D02*
D03*
Y1115060D02*
D03*
Y1013460D02*
D03*
Y988060D02*
D03*
X604520Y1013460D02*
D03*
Y1115060D02*
D03*
Y1140460D02*
D03*
X528320Y988060D02*
D03*
Y1013460D02*
D03*
Y1115060D02*
D03*
Y1140460D02*
D03*
X1010920Y632460D02*
D03*
Y657860D02*
D03*
Y759460D02*
D03*
Y784860D02*
D03*
X934720Y632460D02*
D03*
Y657860D02*
D03*
Y759460D02*
D03*
X1130300Y633730D02*
D03*
Y659130D02*
D03*
Y760730D02*
D03*
Y786130D02*
D03*
X1054100Y633730D02*
D03*
Y659130D02*
D03*
Y760730D02*
D03*
D52*
X1775460Y1124340D02*
D03*
X1701800D02*
D03*
X1482090Y1018930D02*
D03*
X1399540D02*
D03*
D53*
X962660Y872490D02*
D03*
X764540D02*
D03*
X537210D02*
D03*
X337820D02*
D03*
D54*
X938330Y92700D02*
D03*
X1738330D02*
D03*
Y1302700D02*
D03*
X138330D02*
D03*
Y92700D02*
D03*
D55*
X1409700Y436880D02*
D03*
X513080Y648970D02*
D03*
X466090D02*
D03*
X370840D02*
D03*
X321310Y650240D02*
D03*
X273050Y748030D02*
D03*
X419100Y749300D02*
D03*
X370840Y748030D02*
D03*
X1290320Y585470D02*
D03*
X385690Y527050D02*
D03*
X358140Y515620D02*
D03*
X557530Y514350D02*
D03*
X582930Y527050D02*
D03*
X530860Y571500D02*
D03*
X466090D02*
D03*
X414020Y538480D02*
D03*
X491490Y560070D02*
D03*
X430530D02*
D03*
X444500Y571500D02*
D03*
X405130D02*
D03*
X633730Y538480D02*
D03*
X659130Y548640D02*
D03*
X684530Y560070D02*
D03*
X709930Y571500D02*
D03*
X541020Y548640D02*
D03*
X550980Y560070D02*
D03*
X561340Y571500D02*
D03*
X607060Y612140D02*
D03*
X862330D02*
D03*
X914400Y608330D02*
D03*
X1282700Y786130D02*
D03*
X1281430Y598170D02*
D03*
X1409700Y567690D02*
D03*
Y304800D02*
D03*
X878840Y1205230D02*
D03*
X735330Y1215390D02*
D03*
X232410Y1228090D02*
D03*
X187960Y1210310D02*
D03*
X295910Y1226820D02*
D03*
X276860Y1210310D02*
D03*
X175260Y1225550D02*
D03*
X200660Y897890D02*
D03*
Y1050290D02*
D03*
X214630Y1013460D02*
D03*
X138430Y1002420D02*
D03*
X214630Y638810D02*
D03*
X229870Y1088390D02*
D03*
X200660Y880110D02*
D03*
X223670Y665330D02*
D03*
X200660Y622300D02*
D03*
X255270Y717550D02*
D03*
X236220Y701040D02*
D03*
X165100Y687070D02*
D03*
X564950Y674170D02*
D03*
X247650Y863600D02*
D03*
X236220Y915670D02*
D03*
X628650Y760730D02*
D03*
X742950Y759460D02*
D03*
X859790Y760730D02*
D03*
X628650Y737870D02*
D03*
X742950D02*
D03*
X859790D02*
D03*
Y685800D02*
D03*
X742950Y684530D02*
D03*
X628650Y683260D02*
D03*
X1027430Y318770D02*
D03*
X979170Y317500D02*
D03*
X932180D02*
D03*
X883920Y318770D02*
D03*
X836930Y317500D02*
D03*
X1009900Y506980D02*
D03*
X1314450Y290830D02*
D03*
Y422910D02*
D03*
Y554990D02*
D03*
X1299210Y880110D02*
D03*
X1510030Y848360D02*
D03*
X1588070Y844550D02*
D03*
X1540640Y796420D02*
D03*
X1605280Y529590D02*
D03*
X1573530D02*
D03*
X972820Y759460D02*
D03*
X1093470Y749300D02*
D03*
X972820Y683260D02*
D03*
X1093470Y685800D02*
D03*
Y727710D02*
D03*
X972820Y736600D02*
D03*
X1144270Y737870D02*
D03*
Y614680D02*
D03*
X1148080Y255270D02*
D03*
X557530Y797560D02*
D03*
X322580Y798830D02*
D03*
X1106170Y547370D02*
D03*
X1070230Y316610D02*
D03*
X1159510Y708660D02*
D03*
X1173860Y996060D02*
D03*
D56*
X1773360Y999490D02*
D03*
X1642110D02*
D03*
X1563370Y962660D02*
D03*
M02*
