%FSLAX44Y44*%
%MOMM*%
G71*
G01*
G75*
G04 Layer_Color=8388736*
G04:AMPARAMS|DCode=10|XSize=1.1mm|YSize=1mm|CornerRadius=0.15mm|HoleSize=0mm|Usage=FLASHONLY|Rotation=0.000|XOffset=0mm|YOffset=0mm|HoleType=Round|Shape=RoundedRectangle|*
%AMROUNDEDRECTD10*
21,1,1.1000,0.7000,0,0,0.0*
21,1,0.8000,1.0000,0,0,0.0*
1,1,0.3000,0.4000,-0.3500*
1,1,0.3000,-0.4000,-0.3500*
1,1,0.3000,-0.4000,0.3500*
1,1,0.3000,0.4000,0.3500*
%
%ADD10ROUNDEDRECTD10*%
G04:AMPARAMS|DCode=11|XSize=1.1mm|YSize=1mm|CornerRadius=0.15mm|HoleSize=0mm|Usage=FLASHONLY|Rotation=270.000|XOffset=0mm|YOffset=0mm|HoleType=Round|Shape=RoundedRectangle|*
%AMROUNDEDRECTD11*
21,1,1.1000,0.7000,0,0,270.0*
21,1,0.8000,1.0000,0,0,270.0*
1,1,0.3000,-0.3500,-0.4000*
1,1,0.3000,-0.3500,0.4000*
1,1,0.3000,0.3500,0.4000*
1,1,0.3000,0.3500,-0.4000*
%
%ADD11ROUNDEDRECTD11*%
G04:AMPARAMS|DCode=12|XSize=1.4mm|YSize=3mm|CornerRadius=0.21mm|HoleSize=0mm|Usage=FLASHONLY|Rotation=270.000|XOffset=0mm|YOffset=0mm|HoleType=Round|Shape=RoundedRectangle|*
%AMROUNDEDRECTD12*
21,1,1.4000,2.5800,0,0,270.0*
21,1,0.9800,3.0000,0,0,270.0*
1,1,0.4200,-1.2900,-0.4900*
1,1,0.4200,-1.2900,0.4900*
1,1,0.4200,1.2900,0.4900*
1,1,0.4200,1.2900,-0.4900*
%
%ADD12ROUNDEDRECTD12*%
%ADD13O,0.8000X1.5000*%
%ADD14R,0.8000X1.5000*%
%ADD15O,1.5000X0.8000*%
%ADD16R,1.5000X0.8000*%
G04:AMPARAMS|DCode=17|XSize=0.35mm|YSize=0.9mm|CornerRadius=0.0525mm|HoleSize=0mm|Usage=FLASHONLY|Rotation=90.000|XOffset=0mm|YOffset=0mm|HoleType=Round|Shape=RoundedRectangle|*
%AMROUNDEDRECTD17*
21,1,0.3500,0.7950,0,0,90.0*
21,1,0.2450,0.9000,0,0,90.0*
1,1,0.1050,0.3975,0.1225*
1,1,0.1050,0.3975,-0.1225*
1,1,0.1050,-0.3975,-0.1225*
1,1,0.1050,-0.3975,0.1225*
%
%ADD17ROUNDEDRECTD17*%
G04:AMPARAMS|DCode=18|XSize=3.3mm|YSize=1.1mm|CornerRadius=0.165mm|HoleSize=0mm|Usage=FLASHONLY|Rotation=270.000|XOffset=0mm|YOffset=0mm|HoleType=Round|Shape=RoundedRectangle|*
%AMROUNDEDRECTD18*
21,1,3.3000,0.7700,0,0,270.0*
21,1,2.9700,1.1000,0,0,270.0*
1,1,0.3300,-0.3850,-1.4850*
1,1,0.3300,-0.3850,1.4850*
1,1,0.3300,0.3850,1.4850*
1,1,0.3300,0.3850,-1.4850*
%
%ADD18ROUNDEDRECTD18*%
G04:AMPARAMS|DCode=19|XSize=0.65mm|YSize=1.4mm|CornerRadius=0.0975mm|HoleSize=0mm|Usage=FLASHONLY|Rotation=0.000|XOffset=0mm|YOffset=0mm|HoleType=Round|Shape=RoundedRectangle|*
%AMROUNDEDRECTD19*
21,1,0.6500,1.2050,0,0,0.0*
21,1,0.4550,1.4000,0,0,0.0*
1,1,0.1950,0.2275,-0.6025*
1,1,0.1950,-0.2275,-0.6025*
1,1,0.1950,-0.2275,0.6025*
1,1,0.1950,0.2275,0.6025*
%
%ADD19ROUNDEDRECTD19*%
G04:AMPARAMS|DCode=20|XSize=2.7mm|YSize=1.6mm|CornerRadius=0.08mm|HoleSize=0mm|Usage=FLASHONLY|Rotation=90.000|XOffset=0mm|YOffset=0mm|HoleType=Round|Shape=RoundedRectangle|*
%AMROUNDEDRECTD20*
21,1,2.7000,1.4400,0,0,90.0*
21,1,2.5400,1.6000,0,0,90.0*
1,1,0.1600,0.7200,1.2700*
1,1,0.1600,0.7200,-1.2700*
1,1,0.1600,-0.7200,-1.2700*
1,1,0.1600,-0.7200,1.2700*
%
%ADD20ROUNDEDRECTD20*%
G04:AMPARAMS|DCode=21|XSize=2.7mm|YSize=1.6mm|CornerRadius=0mm|HoleSize=0mm|Usage=FLASHONLY|Rotation=90.000|XOffset=0mm|YOffset=0mm|HoleType=Round|Shape=Octagon|*
%AMOCTAGOND21*
4,1,8,0.4000,1.3500,-0.4000,1.3500,-0.8000,0.9500,-0.8000,-0.9500,-0.4000,-1.3500,0.4000,-1.3500,0.8000,-0.9500,0.8000,0.9500,0.4000,1.3500,0.0*
%
%ADD21OCTAGOND21*%

G04:AMPARAMS|DCode=22|XSize=0.9mm|YSize=3.05mm|CornerRadius=0.135mm|HoleSize=0mm|Usage=FLASHONLY|Rotation=90.000|XOffset=0mm|YOffset=0mm|HoleType=Round|Shape=RoundedRectangle|*
%AMROUNDEDRECTD22*
21,1,0.9000,2.7800,0,0,90.0*
21,1,0.6300,3.0500,0,0,90.0*
1,1,0.2700,1.3900,0.3150*
1,1,0.2700,1.3900,-0.3150*
1,1,0.2700,-1.3900,-0.3150*
1,1,0.2700,-1.3900,0.3150*
%
%ADD22ROUNDEDRECTD22*%
G04:AMPARAMS|DCode=23|XSize=5.55mm|YSize=6.5mm|CornerRadius=0.2775mm|HoleSize=0mm|Usage=FLASHONLY|Rotation=90.000|XOffset=0mm|YOffset=0mm|HoleType=Round|Shape=RoundedRectangle|*
%AMROUNDEDRECTD23*
21,1,5.5500,5.9450,0,0,90.0*
21,1,4.9950,6.5000,0,0,90.0*
1,1,0.5550,2.9725,2.4975*
1,1,0.5550,2.9725,-2.4975*
1,1,0.5550,-2.9725,-2.4975*
1,1,0.5550,-2.9725,2.4975*
%
%ADD23ROUNDEDRECTD23*%
G04:AMPARAMS|DCode=24|XSize=2.8mm|YSize=3.4mm|CornerRadius=0.42mm|HoleSize=0mm|Usage=FLASHONLY|Rotation=180.000|XOffset=0mm|YOffset=0mm|HoleType=Round|Shape=RoundedRectangle|*
%AMROUNDEDRECTD24*
21,1,2.8000,2.5600,0,0,180.0*
21,1,1.9600,3.4000,0,0,180.0*
1,1,0.8400,-0.9800,1.2800*
1,1,0.8400,0.9800,1.2800*
1,1,0.8400,0.9800,-1.2800*
1,1,0.8400,-0.9800,-1.2800*
%
%ADD24ROUNDEDRECTD24*%
G04:AMPARAMS|DCode=25|XSize=5.6mm|YSize=6.8mm|CornerRadius=0.28mm|HoleSize=0mm|Usage=FLASHONLY|Rotation=270.000|XOffset=0mm|YOffset=0mm|HoleType=Round|Shape=RoundedRectangle|*
%AMROUNDEDRECTD25*
21,1,5.6000,6.2400,0,0,270.0*
21,1,5.0400,6.8000,0,0,270.0*
1,1,0.5600,-3.1200,-2.5200*
1,1,0.5600,-3.1200,2.5200*
1,1,0.5600,3.1200,2.5200*
1,1,0.5600,3.1200,-2.5200*
%
%ADD25ROUNDEDRECTD25*%
G04:AMPARAMS|DCode=26|XSize=1.3mm|YSize=3.35mm|CornerRadius=0.195mm|HoleSize=0mm|Usage=FLASHONLY|Rotation=270.000|XOffset=0mm|YOffset=0mm|HoleType=Round|Shape=RoundedRectangle|*
%AMROUNDEDRECTD26*
21,1,1.3000,2.9600,0,0,270.0*
21,1,0.9100,3.3500,0,0,270.0*
1,1,0.3900,-1.4800,-0.4550*
1,1,0.3900,-1.4800,0.4550*
1,1,0.3900,1.4800,0.4550*
1,1,0.3900,1.4800,-0.4550*
%
%ADD26ROUNDEDRECTD26*%
G04:AMPARAMS|DCode=27|XSize=1.4mm|YSize=4.1mm|CornerRadius=0.21mm|HoleSize=0mm|Usage=FLASHONLY|Rotation=270.000|XOffset=0mm|YOffset=0mm|HoleType=Round|Shape=RoundedRectangle|*
%AMROUNDEDRECTD27*
21,1,1.4000,3.6800,0,0,270.0*
21,1,0.9800,4.1000,0,0,270.0*
1,1,0.4200,-1.8400,-0.4900*
1,1,0.4200,-1.8400,0.4900*
1,1,0.4200,1.8400,0.4900*
1,1,0.4200,1.8400,-0.4900*
%
%ADD27ROUNDEDRECTD27*%
G04:AMPARAMS|DCode=28|XSize=1.3mm|YSize=1mm|CornerRadius=0.15mm|HoleSize=0mm|Usage=FLASHONLY|Rotation=270.000|XOffset=0mm|YOffset=0mm|HoleType=Round|Shape=RoundedRectangle|*
%AMROUNDEDRECTD28*
21,1,1.3000,0.7000,0,0,270.0*
21,1,1.0000,1.0000,0,0,270.0*
1,1,0.3000,-0.3500,-0.5000*
1,1,0.3000,-0.3500,0.5000*
1,1,0.3000,0.3500,0.5000*
1,1,0.3000,0.3500,-0.5000*
%
%ADD28ROUNDEDRECTD28*%
%ADD29C,2.0000*%
%ADD30C,0.3000*%
%ADD31C,0.5000*%
%ADD32C,0.7500*%
%ADD33C,0.4000*%
%ADD34C,0.2000*%
%ADD35C,1.0000*%
%ADD36C,0.3100*%
%ADD37C,1.8000*%
G04:AMPARAMS|DCode=38|XSize=1.8mm|YSize=1.8mm|CornerRadius=0.27mm|HoleSize=0mm|Usage=FLASHONLY|Rotation=0.000|XOffset=0mm|YOffset=0mm|HoleType=Round|Shape=RoundedRectangle|*
%AMROUNDEDRECTD38*
21,1,1.8000,1.2600,0,0,0.0*
21,1,1.2600,1.8000,0,0,0.0*
1,1,0.5400,0.6300,-0.6300*
1,1,0.5400,-0.6300,-0.6300*
1,1,0.5400,-0.6300,0.6300*
1,1,0.5400,0.6300,0.6300*
%
%ADD38ROUNDEDRECTD38*%
%ADD39O,1.5000X2.5000*%
G04:AMPARAMS|DCode=40|XSize=1.8mm|YSize=1.8mm|CornerRadius=0.45mm|HoleSize=0mm|Usage=FLASHONLY|Rotation=90.000|XOffset=0mm|YOffset=0mm|HoleType=Round|Shape=RoundedRectangle|*
%AMROUNDEDRECTD40*
21,1,1.8000,0.9000,0,0,90.0*
21,1,0.9000,1.8000,0,0,90.0*
1,1,0.9000,0.4500,0.4500*
1,1,0.9000,0.4500,-0.4500*
1,1,0.9000,-0.4500,-0.4500*
1,1,0.9000,-0.4500,0.4500*
%
%ADD40ROUNDEDRECTD40*%
%ADD41C,2.5000*%
G04:AMPARAMS|DCode=42|XSize=2.5mm|YSize=2.5mm|CornerRadius=0.375mm|HoleSize=0mm|Usage=FLASHONLY|Rotation=180.000|XOffset=0mm|YOffset=0mm|HoleType=Round|Shape=RoundedRectangle|*
%AMROUNDEDRECTD42*
21,1,2.5000,1.7500,0,0,180.0*
21,1,1.7500,2.5000,0,0,180.0*
1,1,0.7500,-0.8750,0.8750*
1,1,0.7500,0.8750,0.8750*
1,1,0.7500,0.8750,-0.8750*
1,1,0.7500,-0.8750,-0.8750*
%
%ADD42ROUNDEDRECTD42*%
G04:AMPARAMS|DCode=43|XSize=1.8mm|YSize=1.8mm|CornerRadius=0.45mm|HoleSize=0mm|Usage=FLASHONLY|Rotation=180.000|XOffset=0mm|YOffset=0mm|HoleType=Round|Shape=RoundedRectangle|*
%AMROUNDEDRECTD43*
21,1,1.8000,0.9000,0,0,180.0*
21,1,0.9000,1.8000,0,0,180.0*
1,1,0.9000,-0.4500,0.4500*
1,1,0.9000,0.4500,0.4500*
1,1,0.9000,0.4500,-0.4500*
1,1,0.9000,-0.4500,-0.4500*
%
%ADD43ROUNDEDRECTD43*%
G04:AMPARAMS|DCode=44|XSize=6.5mm|YSize=3.6mm|CornerRadius=1.26mm|HoleSize=0mm|Usage=FLASHONLY|Rotation=180.000|XOffset=0mm|YOffset=0mm|HoleType=Round|Shape=RoundedRectangle|*
%AMROUNDEDRECTD44*
21,1,6.5000,1.0800,0,0,180.0*
21,1,3.9800,3.6000,0,0,180.0*
1,1,2.5200,-1.9900,0.5400*
1,1,2.5200,1.9900,0.5400*
1,1,2.5200,1.9900,-0.5400*
1,1,2.5200,-1.9900,-0.5400*
%
%ADD44ROUNDEDRECTD44*%
%ADD45R,1.5000X1.5000*%
%ADD46C,1.5000*%
%ADD47C,3.8000*%
%ADD48C,1.6000*%
%ADD49R,1.6000X1.6000*%
G04:AMPARAMS|DCode=50|XSize=1.4mm|YSize=1.4mm|CornerRadius=0.21mm|HoleSize=0mm|Usage=FLASHONLY|Rotation=0.000|XOffset=0mm|YOffset=0mm|HoleType=Round|Shape=RoundedRectangle|*
%AMROUNDEDRECTD50*
21,1,1.4000,0.9800,0,0,0.0*
21,1,0.9800,1.4000,0,0,0.0*
1,1,0.4200,0.4900,-0.4900*
1,1,0.4200,-0.4900,-0.4900*
1,1,0.4200,-0.4900,0.4900*
1,1,0.4200,0.4900,0.4900*
%
%ADD50ROUNDEDRECTD50*%
%ADD51C,1.4000*%
G04:AMPARAMS|DCode=52|XSize=6.5mm|YSize=3.6mm|CornerRadius=1.26mm|HoleSize=0mm|Usage=FLASHONLY|Rotation=270.000|XOffset=0mm|YOffset=0mm|HoleType=Round|Shape=RoundedRectangle|*
%AMROUNDEDRECTD52*
21,1,6.5000,1.0800,0,0,270.0*
21,1,3.9800,3.6000,0,0,270.0*
1,1,2.5200,-0.5400,-1.9900*
1,1,2.5200,-0.5400,1.9900*
1,1,2.5200,0.5400,1.9900*
1,1,2.5200,0.5400,-1.9900*
%
%ADD52ROUNDEDRECTD52*%
G04:AMPARAMS|DCode=53|XSize=1.4mm|YSize=1.4mm|CornerRadius=0.21mm|HoleSize=0mm|Usage=FLASHONLY|Rotation=90.000|XOffset=0mm|YOffset=0mm|HoleType=Round|Shape=RoundedRectangle|*
%AMROUNDEDRECTD53*
21,1,1.4000,0.9800,0,0,90.0*
21,1,0.9800,1.4000,0,0,90.0*
1,1,0.4200,0.4900,0.4900*
1,1,0.4200,0.4900,-0.4900*
1,1,0.4200,-0.4900,-0.4900*
1,1,0.4200,-0.4900,0.4900*
%
%ADD53ROUNDEDRECTD53*%
%ADD54C,8.0000*%
%ADD55C,1.0000*%
%ADD56C,1.7000*%
%ADD57C,0.1500*%
%ADD58C,0.2500*%
%ADD59C,0.2540*%
%ADD60C,0.1000*%
%ADD61C,0.1800*%
G04:AMPARAMS|DCode=62|XSize=1.3mm|YSize=1.2mm|CornerRadius=0.25mm|HoleSize=0mm|Usage=FLASHONLY|Rotation=0.000|XOffset=0mm|YOffset=0mm|HoleType=Round|Shape=RoundedRectangle|*
%AMROUNDEDRECTD62*
21,1,1.3000,0.7000,0,0,0.0*
21,1,0.8000,1.2000,0,0,0.0*
1,1,0.5000,0.4000,-0.3500*
1,1,0.5000,-0.4000,-0.3500*
1,1,0.5000,-0.4000,0.3500*
1,1,0.5000,0.4000,0.3500*
%
%ADD62ROUNDEDRECTD62*%
G04:AMPARAMS|DCode=63|XSize=1.3mm|YSize=1.2mm|CornerRadius=0.25mm|HoleSize=0mm|Usage=FLASHONLY|Rotation=270.000|XOffset=0mm|YOffset=0mm|HoleType=Round|Shape=RoundedRectangle|*
%AMROUNDEDRECTD63*
21,1,1.3000,0.7000,0,0,270.0*
21,1,0.8000,1.2000,0,0,270.0*
1,1,0.5000,-0.3500,-0.4000*
1,1,0.5000,-0.3500,0.4000*
1,1,0.5000,0.3500,0.4000*
1,1,0.5000,0.3500,-0.4000*
%
%ADD63ROUNDEDRECTD63*%
G04:AMPARAMS|DCode=64|XSize=1.6mm|YSize=3.2mm|CornerRadius=0.31mm|HoleSize=0mm|Usage=FLASHONLY|Rotation=270.000|XOffset=0mm|YOffset=0mm|HoleType=Round|Shape=RoundedRectangle|*
%AMROUNDEDRECTD64*
21,1,1.6000,2.5800,0,0,270.0*
21,1,0.9800,3.2000,0,0,270.0*
1,1,0.6200,-1.2900,-0.4900*
1,1,0.6200,-1.2900,0.4900*
1,1,0.6200,1.2900,0.4900*
1,1,0.6200,1.2900,-0.4900*
%
%ADD64ROUNDEDRECTD64*%
%ADD65O,1.0000X1.7000*%
%ADD66R,1.0000X1.7000*%
%ADD67O,1.7000X1.0000*%
%ADD68R,1.7000X1.0000*%
G04:AMPARAMS|DCode=69|XSize=0.55mm|YSize=1.1mm|CornerRadius=0.1525mm|HoleSize=0mm|Usage=FLASHONLY|Rotation=90.000|XOffset=0mm|YOffset=0mm|HoleType=Round|Shape=RoundedRectangle|*
%AMROUNDEDRECTD69*
21,1,0.5500,0.7950,0,0,90.0*
21,1,0.2450,1.1000,0,0,90.0*
1,1,0.3050,0.3975,0.1225*
1,1,0.3050,0.3975,-0.1225*
1,1,0.3050,-0.3975,-0.1225*
1,1,0.3050,-0.3975,0.1225*
%
%ADD69ROUNDEDRECTD69*%
G04:AMPARAMS|DCode=70|XSize=3.5mm|YSize=1.3mm|CornerRadius=0.265mm|HoleSize=0mm|Usage=FLASHONLY|Rotation=270.000|XOffset=0mm|YOffset=0mm|HoleType=Round|Shape=RoundedRectangle|*
%AMROUNDEDRECTD70*
21,1,3.5000,0.7700,0,0,270.0*
21,1,2.9700,1.3000,0,0,270.0*
1,1,0.5300,-0.3850,-1.4850*
1,1,0.5300,-0.3850,1.4850*
1,1,0.5300,0.3850,1.4850*
1,1,0.5300,0.3850,-1.4850*
%
%ADD70ROUNDEDRECTD70*%
G04:AMPARAMS|DCode=71|XSize=0.85mm|YSize=1.6mm|CornerRadius=0.1975mm|HoleSize=0mm|Usage=FLASHONLY|Rotation=0.000|XOffset=0mm|YOffset=0mm|HoleType=Round|Shape=RoundedRectangle|*
%AMROUNDEDRECTD71*
21,1,0.8500,1.2050,0,0,0.0*
21,1,0.4550,1.6000,0,0,0.0*
1,1,0.3950,0.2275,-0.6025*
1,1,0.3950,-0.2275,-0.6025*
1,1,0.3950,-0.2275,0.6025*
1,1,0.3950,0.2275,0.6025*
%
%ADD71ROUNDEDRECTD71*%
G04:AMPARAMS|DCode=72|XSize=2.9mm|YSize=1.8mm|CornerRadius=0.18mm|HoleSize=0mm|Usage=FLASHONLY|Rotation=90.000|XOffset=0mm|YOffset=0mm|HoleType=Round|Shape=RoundedRectangle|*
%AMROUNDEDRECTD72*
21,1,2.9000,1.4400,0,0,90.0*
21,1,2.5400,1.8000,0,0,90.0*
1,1,0.3600,0.7200,1.2700*
1,1,0.3600,0.7200,-1.2700*
1,1,0.3600,-0.7200,-1.2700*
1,1,0.3600,-0.7200,1.2700*
%
%ADD72ROUNDEDRECTD72*%
G04:AMPARAMS|DCode=73|XSize=2.9mm|YSize=1.8mm|CornerRadius=0mm|HoleSize=0mm|Usage=FLASHONLY|Rotation=90.000|XOffset=0mm|YOffset=0mm|HoleType=Round|Shape=Octagon|*
%AMOCTAGOND73*
4,1,8,0.4500,1.4500,-0.4500,1.4500,-0.9000,1.0000,-0.9000,-1.0000,-0.4500,-1.4500,0.4500,-1.4500,0.9000,-1.0000,0.9000,1.0000,0.4500,1.4500,0.0*
%
%ADD73OCTAGOND73*%

G04:AMPARAMS|DCode=74|XSize=1.1mm|YSize=3.25mm|CornerRadius=0.235mm|HoleSize=0mm|Usage=FLASHONLY|Rotation=90.000|XOffset=0mm|YOffset=0mm|HoleType=Round|Shape=RoundedRectangle|*
%AMROUNDEDRECTD74*
21,1,1.1000,2.7800,0,0,90.0*
21,1,0.6300,3.2500,0,0,90.0*
1,1,0.4700,1.3900,0.3150*
1,1,0.4700,1.3900,-0.3150*
1,1,0.4700,-1.3900,-0.3150*
1,1,0.4700,-1.3900,0.3150*
%
%ADD74ROUNDEDRECTD74*%
G04:AMPARAMS|DCode=75|XSize=5.75mm|YSize=6.7mm|CornerRadius=0.3775mm|HoleSize=0mm|Usage=FLASHONLY|Rotation=90.000|XOffset=0mm|YOffset=0mm|HoleType=Round|Shape=RoundedRectangle|*
%AMROUNDEDRECTD75*
21,1,5.7500,5.9450,0,0,90.0*
21,1,4.9950,6.7000,0,0,90.0*
1,1,0.7550,2.9725,2.4975*
1,1,0.7550,2.9725,-2.4975*
1,1,0.7550,-2.9725,-2.4975*
1,1,0.7550,-2.9725,2.4975*
%
%ADD75ROUNDEDRECTD75*%
G04:AMPARAMS|DCode=76|XSize=3mm|YSize=3.6mm|CornerRadius=0.52mm|HoleSize=0mm|Usage=FLASHONLY|Rotation=180.000|XOffset=0mm|YOffset=0mm|HoleType=Round|Shape=RoundedRectangle|*
%AMROUNDEDRECTD76*
21,1,3.0000,2.5600,0,0,180.0*
21,1,1.9600,3.6000,0,0,180.0*
1,1,1.0400,-0.9800,1.2800*
1,1,1.0400,0.9800,1.2800*
1,1,1.0400,0.9800,-1.2800*
1,1,1.0400,-0.9800,-1.2800*
%
%ADD76ROUNDEDRECTD76*%
G04:AMPARAMS|DCode=77|XSize=5.8mm|YSize=7mm|CornerRadius=0.38mm|HoleSize=0mm|Usage=FLASHONLY|Rotation=270.000|XOffset=0mm|YOffset=0mm|HoleType=Round|Shape=RoundedRectangle|*
%AMROUNDEDRECTD77*
21,1,5.8000,6.2400,0,0,270.0*
21,1,5.0400,7.0000,0,0,270.0*
1,1,0.7600,-3.1200,-2.5200*
1,1,0.7600,-3.1200,2.5200*
1,1,0.7600,3.1200,2.5200*
1,1,0.7600,3.1200,-2.5200*
%
%ADD77ROUNDEDRECTD77*%
G04:AMPARAMS|DCode=78|XSize=1.5mm|YSize=3.55mm|CornerRadius=0.295mm|HoleSize=0mm|Usage=FLASHONLY|Rotation=270.000|XOffset=0mm|YOffset=0mm|HoleType=Round|Shape=RoundedRectangle|*
%AMROUNDEDRECTD78*
21,1,1.5000,2.9600,0,0,270.0*
21,1,0.9100,3.5500,0,0,270.0*
1,1,0.5900,-1.4800,-0.4550*
1,1,0.5900,-1.4800,0.4550*
1,1,0.5900,1.4800,0.4550*
1,1,0.5900,1.4800,-0.4550*
%
%ADD78ROUNDEDRECTD78*%
G04:AMPARAMS|DCode=79|XSize=1.6mm|YSize=4.3mm|CornerRadius=0.31mm|HoleSize=0mm|Usage=FLASHONLY|Rotation=270.000|XOffset=0mm|YOffset=0mm|HoleType=Round|Shape=RoundedRectangle|*
%AMROUNDEDRECTD79*
21,1,1.6000,3.6800,0,0,270.0*
21,1,0.9800,4.3000,0,0,270.0*
1,1,0.6200,-1.8400,-0.4900*
1,1,0.6200,-1.8400,0.4900*
1,1,0.6200,1.8400,0.4900*
1,1,0.6200,1.8400,-0.4900*
%
%ADD79ROUNDEDRECTD79*%
G04:AMPARAMS|DCode=80|XSize=1.5mm|YSize=1.2mm|CornerRadius=0.25mm|HoleSize=0mm|Usage=FLASHONLY|Rotation=270.000|XOffset=0mm|YOffset=0mm|HoleType=Round|Shape=RoundedRectangle|*
%AMROUNDEDRECTD80*
21,1,1.5000,0.7000,0,0,270.0*
21,1,1.0000,1.2000,0,0,270.0*
1,1,0.5000,-0.3500,-0.5000*
1,1,0.5000,-0.3500,0.5000*
1,1,0.5000,0.3500,0.5000*
1,1,0.5000,0.3500,-0.5000*
%
%ADD80ROUNDEDRECTD80*%
G04:AMPARAMS|DCode=81|XSize=1.3032mm|YSize=1.2032mm|CornerRadius=0.2516mm|HoleSize=0mm|Usage=FLASHONLY|Rotation=0.000|XOffset=0mm|YOffset=0mm|HoleType=Round|Shape=RoundedRectangle|*
%AMROUNDEDRECTD81*
21,1,1.3032,0.7000,0,0,0.0*
21,1,0.8000,1.2032,0,0,0.0*
1,1,0.5032,0.4000,-0.3500*
1,1,0.5032,-0.4000,-0.3500*
1,1,0.5032,-0.4000,0.3500*
1,1,0.5032,0.4000,0.3500*
%
%ADD81ROUNDEDRECTD81*%
G04:AMPARAMS|DCode=82|XSize=1.3032mm|YSize=1.2032mm|CornerRadius=0.2516mm|HoleSize=0mm|Usage=FLASHONLY|Rotation=270.000|XOffset=0mm|YOffset=0mm|HoleType=Round|Shape=RoundedRectangle|*
%AMROUNDEDRECTD82*
21,1,1.3032,0.7000,0,0,270.0*
21,1,0.8000,1.2032,0,0,270.0*
1,1,0.5032,-0.3500,-0.4000*
1,1,0.5032,-0.3500,0.4000*
1,1,0.5032,0.3500,0.4000*
1,1,0.5032,0.3500,-0.4000*
%
%ADD82ROUNDEDRECTD82*%
G04:AMPARAMS|DCode=83|XSize=1.6032mm|YSize=3.2032mm|CornerRadius=0.3116mm|HoleSize=0mm|Usage=FLASHONLY|Rotation=270.000|XOffset=0mm|YOffset=0mm|HoleType=Round|Shape=RoundedRectangle|*
%AMROUNDEDRECTD83*
21,1,1.6032,2.5800,0,0,270.0*
21,1,0.9800,3.2032,0,0,270.0*
1,1,0.6232,-1.2900,-0.4900*
1,1,0.6232,-1.2900,0.4900*
1,1,0.6232,1.2900,0.4900*
1,1,0.6232,1.2900,-0.4900*
%
%ADD83ROUNDEDRECTD83*%
%ADD84O,1.0032X1.7032*%
%ADD85R,1.0032X1.7032*%
%ADD86O,1.7032X1.0032*%
%ADD87R,1.7032X1.0032*%
G04:AMPARAMS|DCode=88|XSize=0.5532mm|YSize=1.1032mm|CornerRadius=0.1541mm|HoleSize=0mm|Usage=FLASHONLY|Rotation=90.000|XOffset=0mm|YOffset=0mm|HoleType=Round|Shape=RoundedRectangle|*
%AMROUNDEDRECTD88*
21,1,0.5532,0.7950,0,0,90.0*
21,1,0.2450,1.1032,0,0,90.0*
1,1,0.3082,0.3975,0.1225*
1,1,0.3082,0.3975,-0.1225*
1,1,0.3082,-0.3975,-0.1225*
1,1,0.3082,-0.3975,0.1225*
%
%ADD88ROUNDEDRECTD88*%
G04:AMPARAMS|DCode=89|XSize=3.5032mm|YSize=1.3032mm|CornerRadius=0.2666mm|HoleSize=0mm|Usage=FLASHONLY|Rotation=270.000|XOffset=0mm|YOffset=0mm|HoleType=Round|Shape=RoundedRectangle|*
%AMROUNDEDRECTD89*
21,1,3.5032,0.7700,0,0,270.0*
21,1,2.9700,1.3032,0,0,270.0*
1,1,0.5332,-0.3850,-1.4850*
1,1,0.5332,-0.3850,1.4850*
1,1,0.5332,0.3850,1.4850*
1,1,0.5332,0.3850,-1.4850*
%
%ADD89ROUNDEDRECTD89*%
G04:AMPARAMS|DCode=90|XSize=0.8532mm|YSize=1.6032mm|CornerRadius=0.1991mm|HoleSize=0mm|Usage=FLASHONLY|Rotation=0.000|XOffset=0mm|YOffset=0mm|HoleType=Round|Shape=RoundedRectangle|*
%AMROUNDEDRECTD90*
21,1,0.8532,1.2050,0,0,0.0*
21,1,0.4550,1.6032,0,0,0.0*
1,1,0.3982,0.2275,-0.6025*
1,1,0.3982,-0.2275,-0.6025*
1,1,0.3982,-0.2275,0.6025*
1,1,0.3982,0.2275,0.6025*
%
%ADD90ROUNDEDRECTD90*%
G04:AMPARAMS|DCode=91|XSize=2.9032mm|YSize=1.8032mm|CornerRadius=0.1816mm|HoleSize=0mm|Usage=FLASHONLY|Rotation=90.000|XOffset=0mm|YOffset=0mm|HoleType=Round|Shape=RoundedRectangle|*
%AMROUNDEDRECTD91*
21,1,2.9032,1.4400,0,0,90.0*
21,1,2.5400,1.8032,0,0,90.0*
1,1,0.3632,0.7200,1.2700*
1,1,0.3632,0.7200,-1.2700*
1,1,0.3632,-0.7200,-1.2700*
1,1,0.3632,-0.7200,1.2700*
%
%ADD91ROUNDEDRECTD91*%
G04:AMPARAMS|DCode=92|XSize=2.9032mm|YSize=1.8032mm|CornerRadius=0mm|HoleSize=0mm|Usage=FLASHONLY|Rotation=90.000|XOffset=0mm|YOffset=0mm|HoleType=Round|Shape=Octagon|*
%AMOCTAGOND92*
4,1,8,0.4508,1.4516,-0.4508,1.4516,-0.9016,1.0008,-0.9016,-1.0008,-0.4508,-1.4516,0.4508,-1.4516,0.9016,-1.0008,0.9016,1.0008,0.4508,1.4516,0.0*
%
%ADD92OCTAGOND92*%

G04:AMPARAMS|DCode=93|XSize=1.1032mm|YSize=3.2532mm|CornerRadius=0.2366mm|HoleSize=0mm|Usage=FLASHONLY|Rotation=90.000|XOffset=0mm|YOffset=0mm|HoleType=Round|Shape=RoundedRectangle|*
%AMROUNDEDRECTD93*
21,1,1.1032,2.7800,0,0,90.0*
21,1,0.6300,3.2532,0,0,90.0*
1,1,0.4732,1.3900,0.3150*
1,1,0.4732,1.3900,-0.3150*
1,1,0.4732,-1.3900,-0.3150*
1,1,0.4732,-1.3900,0.3150*
%
%ADD93ROUNDEDRECTD93*%
G04:AMPARAMS|DCode=94|XSize=5.7532mm|YSize=6.7032mm|CornerRadius=0.3791mm|HoleSize=0mm|Usage=FLASHONLY|Rotation=90.000|XOffset=0mm|YOffset=0mm|HoleType=Round|Shape=RoundedRectangle|*
%AMROUNDEDRECTD94*
21,1,5.7532,5.9450,0,0,90.0*
21,1,4.9950,6.7032,0,0,90.0*
1,1,0.7582,2.9725,2.4975*
1,1,0.7582,2.9725,-2.4975*
1,1,0.7582,-2.9725,-2.4975*
1,1,0.7582,-2.9725,2.4975*
%
%ADD94ROUNDEDRECTD94*%
G04:AMPARAMS|DCode=95|XSize=3.0032mm|YSize=3.6032mm|CornerRadius=0.5216mm|HoleSize=0mm|Usage=FLASHONLY|Rotation=180.000|XOffset=0mm|YOffset=0mm|HoleType=Round|Shape=RoundedRectangle|*
%AMROUNDEDRECTD95*
21,1,3.0032,2.5600,0,0,180.0*
21,1,1.9600,3.6032,0,0,180.0*
1,1,1.0432,-0.9800,1.2800*
1,1,1.0432,0.9800,1.2800*
1,1,1.0432,0.9800,-1.2800*
1,1,1.0432,-0.9800,-1.2800*
%
%ADD95ROUNDEDRECTD95*%
G04:AMPARAMS|DCode=96|XSize=5.8032mm|YSize=7.0032mm|CornerRadius=0.3816mm|HoleSize=0mm|Usage=FLASHONLY|Rotation=270.000|XOffset=0mm|YOffset=0mm|HoleType=Round|Shape=RoundedRectangle|*
%AMROUNDEDRECTD96*
21,1,5.8032,6.2400,0,0,270.0*
21,1,5.0400,7.0032,0,0,270.0*
1,1,0.7632,-3.1200,-2.5200*
1,1,0.7632,-3.1200,2.5200*
1,1,0.7632,3.1200,2.5200*
1,1,0.7632,3.1200,-2.5200*
%
%ADD96ROUNDEDRECTD96*%
G04:AMPARAMS|DCode=97|XSize=1.5032mm|YSize=3.5532mm|CornerRadius=0.2966mm|HoleSize=0mm|Usage=FLASHONLY|Rotation=270.000|XOffset=0mm|YOffset=0mm|HoleType=Round|Shape=RoundedRectangle|*
%AMROUNDEDRECTD97*
21,1,1.5032,2.9600,0,0,270.0*
21,1,0.9100,3.5532,0,0,270.0*
1,1,0.5932,-1.4800,-0.4550*
1,1,0.5932,-1.4800,0.4550*
1,1,0.5932,1.4800,0.4550*
1,1,0.5932,1.4800,-0.4550*
%
%ADD97ROUNDEDRECTD97*%
G04:AMPARAMS|DCode=98|XSize=1.6032mm|YSize=4.3032mm|CornerRadius=0.3116mm|HoleSize=0mm|Usage=FLASHONLY|Rotation=270.000|XOffset=0mm|YOffset=0mm|HoleType=Round|Shape=RoundedRectangle|*
%AMROUNDEDRECTD98*
21,1,1.6032,3.6800,0,0,270.0*
21,1,0.9800,4.3032,0,0,270.0*
1,1,0.6232,-1.8400,-0.4900*
1,1,0.6232,-1.8400,0.4900*
1,1,0.6232,1.8400,0.4900*
1,1,0.6232,1.8400,-0.4900*
%
%ADD98ROUNDEDRECTD98*%
G04:AMPARAMS|DCode=99|XSize=1.5032mm|YSize=1.2032mm|CornerRadius=0.2516mm|HoleSize=0mm|Usage=FLASHONLY|Rotation=270.000|XOffset=0mm|YOffset=0mm|HoleType=Round|Shape=RoundedRectangle|*
%AMROUNDEDRECTD99*
21,1,1.5032,0.7000,0,0,270.0*
21,1,1.0000,1.2032,0,0,270.0*
1,1,0.5032,-0.3500,-0.5000*
1,1,0.5032,-0.3500,0.5000*
1,1,0.5032,0.3500,0.5000*
1,1,0.5032,0.3500,-0.5000*
%
%ADD99ROUNDEDRECTD99*%
%ADD100C,2.0032*%
G04:AMPARAMS|DCode=101|XSize=2.0032mm|YSize=2.0032mm|CornerRadius=0.3716mm|HoleSize=0mm|Usage=FLASHONLY|Rotation=0.000|XOffset=0mm|YOffset=0mm|HoleType=Round|Shape=RoundedRectangle|*
%AMROUNDEDRECTD101*
21,1,2.0032,1.2600,0,0,0.0*
21,1,1.2600,2.0032,0,0,0.0*
1,1,0.7432,0.6300,-0.6300*
1,1,0.7432,-0.6300,-0.6300*
1,1,0.7432,-0.6300,0.6300*
1,1,0.7432,0.6300,0.6300*
%
%ADD101ROUNDEDRECTD101*%
%ADD102O,1.7032X2.7032*%
G04:AMPARAMS|DCode=103|XSize=2.0032mm|YSize=2.0032mm|CornerRadius=0.5516mm|HoleSize=0mm|Usage=FLASHONLY|Rotation=90.000|XOffset=0mm|YOffset=0mm|HoleType=Round|Shape=RoundedRectangle|*
%AMROUNDEDRECTD103*
21,1,2.0032,0.9000,0,0,90.0*
21,1,0.9000,2.0032,0,0,90.0*
1,1,1.1032,0.4500,0.4500*
1,1,1.1032,0.4500,-0.4500*
1,1,1.1032,-0.4500,-0.4500*
1,1,1.1032,-0.4500,0.4500*
%
%ADD103ROUNDEDRECTD103*%
%ADD104C,2.7032*%
G04:AMPARAMS|DCode=105|XSize=2.7032mm|YSize=2.7032mm|CornerRadius=0.4766mm|HoleSize=0mm|Usage=FLASHONLY|Rotation=180.000|XOffset=0mm|YOffset=0mm|HoleType=Round|Shape=RoundedRectangle|*
%AMROUNDEDRECTD105*
21,1,2.7032,1.7500,0,0,180.0*
21,1,1.7500,2.7032,0,0,180.0*
1,1,0.9532,-0.8750,0.8750*
1,1,0.9532,0.8750,0.8750*
1,1,0.9532,0.8750,-0.8750*
1,1,0.9532,-0.8750,-0.8750*
%
%ADD105ROUNDEDRECTD105*%
G04:AMPARAMS|DCode=106|XSize=2.0032mm|YSize=2.0032mm|CornerRadius=0.5516mm|HoleSize=0mm|Usage=FLASHONLY|Rotation=180.000|XOffset=0mm|YOffset=0mm|HoleType=Round|Shape=RoundedRectangle|*
%AMROUNDEDRECTD106*
21,1,2.0032,0.9000,0,0,180.0*
21,1,0.9000,2.0032,0,0,180.0*
1,1,1.1032,-0.4500,0.4500*
1,1,1.1032,0.4500,0.4500*
1,1,1.1032,0.4500,-0.4500*
1,1,1.1032,-0.4500,-0.4500*
%
%ADD106ROUNDEDRECTD106*%
G04:AMPARAMS|DCode=107|XSize=6.7032mm|YSize=3.8032mm|CornerRadius=1.3616mm|HoleSize=0mm|Usage=FLASHONLY|Rotation=180.000|XOffset=0mm|YOffset=0mm|HoleType=Round|Shape=RoundedRectangle|*
%AMROUNDEDRECTD107*
21,1,6.7032,1.0800,0,0,180.0*
21,1,3.9800,3.8032,0,0,180.0*
1,1,2.7232,-1.9900,0.5400*
1,1,2.7232,1.9900,0.5400*
1,1,2.7232,1.9900,-0.5400*
1,1,2.7232,-1.9900,-0.5400*
%
%ADD107ROUNDEDRECTD107*%
%ADD108R,1.7032X1.7032*%
%ADD109C,1.7032*%
%ADD110C,4.0032*%
%ADD111C,1.8032*%
%ADD112R,1.8032X1.8032*%
G04:AMPARAMS|DCode=113|XSize=1.6032mm|YSize=1.6032mm|CornerRadius=0.3116mm|HoleSize=0mm|Usage=FLASHONLY|Rotation=0.000|XOffset=0mm|YOffset=0mm|HoleType=Round|Shape=RoundedRectangle|*
%AMROUNDEDRECTD113*
21,1,1.6032,0.9800,0,0,0.0*
21,1,0.9800,1.6032,0,0,0.0*
1,1,0.6232,0.4900,-0.4900*
1,1,0.6232,-0.4900,-0.4900*
1,1,0.6232,-0.4900,0.4900*
1,1,0.6232,0.4900,0.4900*
%
%ADD113ROUNDEDRECTD113*%
%ADD114C,1.6032*%
G04:AMPARAMS|DCode=115|XSize=6.7032mm|YSize=3.8032mm|CornerRadius=1.3616mm|HoleSize=0mm|Usage=FLASHONLY|Rotation=270.000|XOffset=0mm|YOffset=0mm|HoleType=Round|Shape=RoundedRectangle|*
%AMROUNDEDRECTD115*
21,1,6.7032,1.0800,0,0,270.0*
21,1,3.9800,3.8032,0,0,270.0*
1,1,2.7232,-0.5400,-1.9900*
1,1,2.7232,-0.5400,1.9900*
1,1,2.7232,0.5400,1.9900*
1,1,2.7232,0.5400,-1.9900*
%
%ADD115ROUNDEDRECTD115*%
G04:AMPARAMS|DCode=116|XSize=1.6032mm|YSize=1.6032mm|CornerRadius=0.3116mm|HoleSize=0mm|Usage=FLASHONLY|Rotation=90.000|XOffset=0mm|YOffset=0mm|HoleType=Round|Shape=RoundedRectangle|*
%AMROUNDEDRECTD116*
21,1,1.6032,0.9800,0,0,90.0*
21,1,0.9800,1.6032,0,0,90.0*
1,1,0.6232,0.4900,0.4900*
1,1,0.6232,0.4900,-0.4900*
1,1,0.6232,-0.4900,-0.4900*
1,1,0.6232,-0.4900,0.4900*
%
%ADD116ROUNDEDRECTD116*%
%ADD117C,8.2032*%
%ADD118C,1.2032*%
%ADD119C,1.9032*%
D81*
X1159510Y723520D02*
D03*
Y739520D02*
D03*
X1050290Y300610D02*
D03*
Y316610D02*
D03*
X322580Y766700D02*
D03*
Y782700D02*
D03*
X557530Y766700D02*
D03*
Y782700D02*
D03*
X271780Y1114680D02*
D03*
Y1130680D02*
D03*
X1315720Y315850D02*
D03*
Y331850D02*
D03*
X346710Y750190D02*
D03*
Y766190D02*
D03*
X1225550Y935100D02*
D03*
Y919100D02*
D03*
X444500Y750190D02*
D03*
Y766190D02*
D03*
X1051560Y531750D02*
D03*
Y547750D02*
D03*
X394970Y750190D02*
D03*
Y766190D02*
D03*
X810260Y533020D02*
D03*
Y549020D02*
D03*
X795020Y316610D02*
D03*
Y300610D02*
D03*
X1303020Y806830D02*
D03*
Y790830D02*
D03*
X538480Y750190D02*
D03*
Y766190D02*
D03*
X298450Y750190D02*
D03*
Y766190D02*
D03*
X491490Y750190D02*
D03*
Y766190D02*
D03*
X1002030Y300610D02*
D03*
Y316610D02*
D03*
X953770Y300610D02*
D03*
Y316610D02*
D03*
X906780Y300610D02*
D03*
Y316610D02*
D03*
X858520Y300610D02*
D03*
Y316610D02*
D03*
D82*
X1075310Y547370D02*
D03*
X1091310D02*
D03*
X1157860Y1014730D02*
D03*
X1173860D02*
D03*
X1316100Y448310D02*
D03*
X1300100D02*
D03*
X1316100Y580390D02*
D03*
X1300100D02*
D03*
X1414400Y422910D02*
D03*
X1430400D02*
D03*
X1414400Y290830D02*
D03*
X1430400D02*
D03*
X1248790Y1154430D02*
D03*
X1232790D02*
D03*
X1265300Y939800D02*
D03*
X1249300D02*
D03*
X289940Y642620D02*
D03*
X273940D02*
D03*
X1415670Y554990D02*
D03*
X1431670D02*
D03*
D83*
X1069470Y255270D02*
D03*
X1117470D02*
D03*
X1588640Y816610D02*
D03*
X1540640D02*
D03*
D84*
X273050Y666500D02*
D03*
X298450D02*
D03*
X273050Y730500D02*
D03*
X321310Y666500D02*
D03*
X346710D02*
D03*
X321310Y730500D02*
D03*
X466090Y666500D02*
D03*
X491490D02*
D03*
X466090Y730500D02*
D03*
X513080Y666500D02*
D03*
X538480D02*
D03*
X513080Y730500D02*
D03*
X419100D02*
D03*
X444500Y666500D02*
D03*
X419100D02*
D03*
X1026160Y506980D02*
D03*
X1051560Y442980D02*
D03*
X1026160D02*
D03*
X1027430Y337570D02*
D03*
X1002030Y401570D02*
D03*
X1027430D02*
D03*
X370840Y730500D02*
D03*
X396240Y666500D02*
D03*
X370840D02*
D03*
X979170Y336300D02*
D03*
X953770Y400300D02*
D03*
X979170D02*
D03*
X932180Y336300D02*
D03*
X906780Y400300D02*
D03*
X932180D02*
D03*
X883920Y335030D02*
D03*
X858520Y399030D02*
D03*
X883920D02*
D03*
X810260Y510790D02*
D03*
X835660Y446790D02*
D03*
X810260D02*
D03*
X836930Y335030D02*
D03*
X811530Y399030D02*
D03*
X836930D02*
D03*
D85*
X298450Y730500D02*
D03*
X346710D02*
D03*
X491490D02*
D03*
X538480D02*
D03*
X444500D02*
D03*
X1051560Y506980D02*
D03*
X1002030Y337570D02*
D03*
X396240Y730500D02*
D03*
X953770Y336300D02*
D03*
X906780D02*
D03*
X858520Y335030D02*
D03*
X835660Y510790D02*
D03*
X811530Y335030D02*
D03*
D86*
X1397250Y554990D02*
D03*
Y580390D02*
D03*
X1333250Y554990D02*
D03*
X1398520Y290830D02*
D03*
Y316230D02*
D03*
X1334520Y290830D02*
D03*
X1398520Y422910D02*
D03*
Y448310D02*
D03*
X1334520Y422910D02*
D03*
X1281680Y833120D02*
D03*
X1217680Y807720D02*
D03*
Y833120D02*
D03*
X1281680Y880110D02*
D03*
X1217680Y854710D02*
D03*
Y880110D02*
D03*
D87*
X1333250Y580390D02*
D03*
X1334520Y316230D02*
D03*
Y448310D02*
D03*
X1281680Y807720D02*
D03*
Y854710D02*
D03*
D88*
X215240Y1232050D02*
D03*
Y1225550D02*
D03*
Y1219050D02*
D03*
X196240D02*
D03*
Y1225550D02*
D03*
Y1232050D02*
D03*
D89*
X1428190Y821690D02*
D03*
X1485190D02*
D03*
D90*
X659130Y1317150D02*
D03*
X649630Y1337150D02*
D03*
X668630D02*
D03*
X496570Y1320960D02*
D03*
X487070Y1340960D02*
D03*
X506070D02*
D03*
D91*
X1270000Y975170D02*
D03*
Y1110170D02*
D03*
X1219200D02*
D03*
X1244600D02*
D03*
Y975170D02*
D03*
D92*
X1219200D02*
D03*
D93*
X1466260Y304750D02*
D03*
Y279400D02*
D03*
Y317500D02*
D03*
Y292100D02*
D03*
Y330200D02*
D03*
X1464990Y436195D02*
D03*
Y410845D02*
D03*
Y448945D02*
D03*
Y423545D02*
D03*
Y461645D02*
D03*
X1461180Y593090D02*
D03*
Y554990D02*
D03*
Y580390D02*
D03*
Y542290D02*
D03*
Y567640D02*
D03*
D94*
X1532760Y304800D02*
D03*
X1531490Y436245D02*
D03*
X1527680Y567690D02*
D03*
D95*
X1701360Y1036320D02*
D03*
X1773360D02*
D03*
D96*
X1632080Y955040D02*
D03*
D97*
X1701580Y977940D02*
D03*
Y932140D02*
D03*
D98*
X1745570Y839470D02*
D03*
X1660570D02*
D03*
D99*
X1247300Y913130D02*
D03*
X1267300D02*
D03*
X1027270Y424180D02*
D03*
X1007270D02*
D03*
X979010D02*
D03*
X959010D02*
D03*
X933290D02*
D03*
X913290D02*
D03*
X882490Y447040D02*
D03*
X862490D02*
D03*
X882490Y424180D02*
D03*
X862490D02*
D03*
D100*
X1118870Y821690D02*
D03*
X1093470D02*
D03*
X998220D02*
D03*
X972820D02*
D03*
X1214120Y76200D02*
D03*
Y50800D02*
D03*
X1188720Y76200D02*
D03*
Y50800D02*
D03*
X1137920Y76200D02*
D03*
Y50800D02*
D03*
X1112520Y76200D02*
D03*
Y50800D02*
D03*
X1087120Y76200D02*
D03*
Y50800D02*
D03*
X1163320D02*
D03*
Y76200D02*
D03*
X1239520Y50800D02*
D03*
Y76200D02*
D03*
X1264920Y50800D02*
D03*
Y76200D02*
D03*
X1290320Y50800D02*
D03*
Y76200D02*
D03*
X1315720Y50800D02*
D03*
Y76200D02*
D03*
X1214120Y182880D02*
D03*
Y157480D02*
D03*
X1188720Y182880D02*
D03*
Y157480D02*
D03*
X1137920Y182880D02*
D03*
Y157480D02*
D03*
X1112520Y182880D02*
D03*
Y157480D02*
D03*
X1087120Y182880D02*
D03*
Y157480D02*
D03*
X1163320D02*
D03*
Y182880D02*
D03*
X1239520Y157480D02*
D03*
Y182880D02*
D03*
X1264920Y157480D02*
D03*
Y182880D02*
D03*
X1290320Y157480D02*
D03*
Y182880D02*
D03*
X1315720Y157480D02*
D03*
Y182880D02*
D03*
X1588770Y730250D02*
D03*
X914400Y532130D02*
D03*
X939800D02*
D03*
X965200D02*
D03*
X889000D02*
D03*
X863600D02*
D03*
X1074420Y388620D02*
D03*
X1181100Y861060D02*
D03*
X1315720Y356870D02*
D03*
X647700Y298450D02*
D03*
Y273050D02*
D03*
X622300Y298450D02*
D03*
Y273050D02*
D03*
X596900Y298450D02*
D03*
Y273050D02*
D03*
X571500Y298450D02*
D03*
Y273050D02*
D03*
X546100Y298450D02*
D03*
Y273050D02*
D03*
X520700Y298450D02*
D03*
Y273050D02*
D03*
X292100Y298450D02*
D03*
Y273050D02*
D03*
X266700Y298450D02*
D03*
Y273050D02*
D03*
X241300Y298450D02*
D03*
Y273050D02*
D03*
X317500D02*
D03*
Y298450D02*
D03*
X342900Y273050D02*
D03*
Y298450D02*
D03*
X368300Y273050D02*
D03*
Y298450D02*
D03*
X393700Y273050D02*
D03*
Y298450D02*
D03*
X419100Y273050D02*
D03*
Y298450D02*
D03*
X444500Y273050D02*
D03*
Y298450D02*
D03*
X469900Y273050D02*
D03*
Y298450D02*
D03*
X495300Y273050D02*
D03*
Y298450D02*
D03*
X673100Y273050D02*
D03*
Y298450D02*
D03*
X698500Y273050D02*
D03*
Y298450D02*
D03*
X723900Y273050D02*
D03*
Y298450D02*
D03*
X1328420Y759460D02*
D03*
X1430020D02*
D03*
X1455420D02*
D03*
Y683260D02*
D03*
X1430020D02*
D03*
X1328420D02*
D03*
X69850Y864870D02*
D03*
X95250D02*
D03*
X69850Y839470D02*
D03*
X95250D02*
D03*
X69850Y814070D02*
D03*
X95250D02*
D03*
X69850Y788670D02*
D03*
X95250D02*
D03*
X69850Y763270D02*
D03*
X95250D02*
D03*
X69850Y737870D02*
D03*
X95250D02*
D03*
X69850Y509270D02*
D03*
X95250D02*
D03*
X69850Y483870D02*
D03*
X95250D02*
D03*
X69850Y458470D02*
D03*
X95250D02*
D03*
Y534670D02*
D03*
X69850D02*
D03*
X95250Y560070D02*
D03*
X69850D02*
D03*
X95250Y585470D02*
D03*
X69850D02*
D03*
X95250Y610870D02*
D03*
X69850D02*
D03*
X95250Y636270D02*
D03*
X69850D02*
D03*
X95250Y661670D02*
D03*
X69850D02*
D03*
X95250Y687070D02*
D03*
X69850D02*
D03*
X95250Y712470D02*
D03*
X69850D02*
D03*
X95250Y890270D02*
D03*
X69850D02*
D03*
X95250Y915670D02*
D03*
X69850D02*
D03*
X95250Y941070D02*
D03*
X69850D02*
D03*
X406400Y372110D02*
D03*
X381000D02*
D03*
X304800D02*
D03*
X279400D02*
D03*
X254000D02*
D03*
X330200D02*
D03*
X355600D02*
D03*
X431800D02*
D03*
X457200D02*
D03*
X711200D02*
D03*
X685800D02*
D03*
X609600D02*
D03*
X584200D02*
D03*
X482600D02*
D03*
X508000D02*
D03*
X533400D02*
D03*
X558800D02*
D03*
X635000D02*
D03*
X660400D02*
D03*
X406400Y416560D02*
D03*
X381000D02*
D03*
X304800D02*
D03*
X279400D02*
D03*
X254000D02*
D03*
X330200D02*
D03*
X355600D02*
D03*
X431800D02*
D03*
X457200D02*
D03*
X711200D02*
D03*
X685800D02*
D03*
X609600D02*
D03*
X584200D02*
D03*
X482600D02*
D03*
X508000D02*
D03*
X533400D02*
D03*
X558800D02*
D03*
X635000D02*
D03*
X660400D02*
D03*
X1252220Y1206500D02*
D03*
X654050Y822960D02*
D03*
X628650D02*
D03*
X885190Y821690D02*
D03*
X859790D02*
D03*
X768350Y822960D02*
D03*
X742950D02*
D03*
X532130Y466090D02*
D03*
X557530D02*
D03*
X633730D02*
D03*
X659130D02*
D03*
X684530D02*
D03*
X608330D02*
D03*
X582930D02*
D03*
X506730D02*
D03*
X481330D02*
D03*
X227330D02*
D03*
X252730D02*
D03*
X328930D02*
D03*
X354330D02*
D03*
X455930D02*
D03*
X430530D02*
D03*
X405130D02*
D03*
X379730D02*
D03*
X303530D02*
D03*
X278130D02*
D03*
X471170Y181610D02*
D03*
Y156210D02*
D03*
X445770Y181610D02*
D03*
Y156210D02*
D03*
X420370Y181610D02*
D03*
Y156210D02*
D03*
X394970Y181610D02*
D03*
Y156210D02*
D03*
X318770Y181610D02*
D03*
Y156210D02*
D03*
X242570D02*
D03*
Y181610D02*
D03*
X267970Y156210D02*
D03*
Y181610D02*
D03*
X293370Y156210D02*
D03*
Y181610D02*
D03*
X344170Y156210D02*
D03*
Y181610D02*
D03*
X369570Y156210D02*
D03*
Y181610D02*
D03*
X471170Y74930D02*
D03*
Y49530D02*
D03*
X445770Y74930D02*
D03*
Y49530D02*
D03*
X420370Y74930D02*
D03*
Y49530D02*
D03*
X394970Y74930D02*
D03*
Y49530D02*
D03*
X318770Y74930D02*
D03*
Y49530D02*
D03*
X242570D02*
D03*
Y74930D02*
D03*
X267970Y49530D02*
D03*
Y74930D02*
D03*
X293370Y49530D02*
D03*
Y74930D02*
D03*
X344170Y49530D02*
D03*
Y74930D02*
D03*
X369570Y49530D02*
D03*
Y74930D02*
D03*
X807720Y180340D02*
D03*
Y154940D02*
D03*
X782320Y180340D02*
D03*
Y154940D02*
D03*
X756920Y180340D02*
D03*
Y154940D02*
D03*
X731520Y180340D02*
D03*
Y154940D02*
D03*
X655320Y180340D02*
D03*
Y154940D02*
D03*
X579120D02*
D03*
Y180340D02*
D03*
X604520Y154940D02*
D03*
Y180340D02*
D03*
X629920Y154940D02*
D03*
Y180340D02*
D03*
X680720Y154940D02*
D03*
Y180340D02*
D03*
X706120Y154940D02*
D03*
Y180340D02*
D03*
X806450Y74930D02*
D03*
Y49530D02*
D03*
X781050Y74930D02*
D03*
Y49530D02*
D03*
X755650Y74930D02*
D03*
Y49530D02*
D03*
X730250Y74930D02*
D03*
Y49530D02*
D03*
X654050Y74930D02*
D03*
Y49530D02*
D03*
X577850D02*
D03*
Y74930D02*
D03*
X603250Y49530D02*
D03*
Y74930D02*
D03*
X628650Y49530D02*
D03*
Y74930D02*
D03*
X679450Y49530D02*
D03*
Y74930D02*
D03*
X704850Y49530D02*
D03*
Y74930D02*
D03*
D101*
X1068070Y821690D02*
D03*
X947420D02*
D03*
X603250Y822960D02*
D03*
X834390Y821690D02*
D03*
X717550Y822960D02*
D03*
D102*
X1540510Y1117600D02*
D03*
X1588770D02*
D03*
X891540Y1236980D02*
D03*
X853440D02*
D03*
X814070D02*
D03*
X408940Y1212850D02*
D03*
X364490D02*
D03*
X1428750Y897890D02*
D03*
X1482090D02*
D03*
X322580Y1212850D02*
D03*
D103*
X1588770Y704850D02*
D03*
X1074420Y414020D02*
D03*
X1181100Y835660D02*
D03*
X1315720Y382270D02*
D03*
D104*
X1771650Y576580D02*
D03*
X1847850Y373380D02*
D03*
X1644650D02*
D03*
D105*
X1720850Y576580D02*
D03*
D106*
X990600Y532130D02*
D03*
X228600Y372110D02*
D03*
Y416560D02*
D03*
X1226820Y1206500D02*
D03*
X709930Y466090D02*
D03*
D107*
X1424060Y218440D02*
D03*
X1418980Y369570D02*
D03*
D108*
X276860Y1183640D02*
D03*
X618490Y1261110D02*
D03*
X445770D02*
D03*
D109*
X276860Y1158240D02*
D03*
X251460Y1183640D02*
D03*
Y1158240D02*
D03*
X226060Y1183640D02*
D03*
Y1158240D02*
D03*
X200660Y1183640D02*
D03*
Y1158240D02*
D03*
X175260Y1183640D02*
D03*
Y1158240D02*
D03*
X618490Y1286510D02*
D03*
X643890Y1261110D02*
D03*
Y1286510D02*
D03*
X669290Y1261110D02*
D03*
Y1286510D02*
D03*
X694690Y1261110D02*
D03*
Y1286510D02*
D03*
X720090Y1261110D02*
D03*
Y1286510D02*
D03*
X445770D02*
D03*
X471170Y1261110D02*
D03*
Y1286510D02*
D03*
X496570Y1261110D02*
D03*
Y1286510D02*
D03*
X521970Y1261110D02*
D03*
Y1286510D02*
D03*
X547370Y1261110D02*
D03*
Y1286510D02*
D03*
D110*
X333250Y1326150D02*
D03*
X212850D02*
D03*
D111*
X285550Y1299050D02*
D03*
X260550D02*
D03*
X285550Y1279050D02*
D03*
D112*
X260550D02*
D03*
D113*
X585470Y784860D02*
D03*
X819785D02*
D03*
X702310D02*
D03*
X848360Y1140460D02*
D03*
X741680D02*
D03*
X1137920Y988060D02*
D03*
X1031240D02*
D03*
X421640Y1140460D02*
D03*
X711200Y988060D02*
D03*
X314960Y1140460D02*
D03*
X604520Y988060D02*
D03*
X934720Y784860D02*
D03*
X1054100Y786130D02*
D03*
D114*
X585470Y759460D02*
D03*
Y657860D02*
D03*
Y632460D02*
D03*
X661670Y784860D02*
D03*
Y759460D02*
D03*
Y657860D02*
D03*
Y632460D02*
D03*
X819785Y759460D02*
D03*
Y657860D02*
D03*
Y632460D02*
D03*
X895985Y784860D02*
D03*
Y759460D02*
D03*
Y657860D02*
D03*
Y632460D02*
D03*
X702310Y759460D02*
D03*
Y657860D02*
D03*
Y632460D02*
D03*
X778510Y784860D02*
D03*
Y759460D02*
D03*
Y657860D02*
D03*
Y632460D02*
D03*
X848360Y1115060D02*
D03*
Y1013460D02*
D03*
Y988060D02*
D03*
X924560Y1140460D02*
D03*
Y1115060D02*
D03*
Y1013460D02*
D03*
Y988060D02*
D03*
X741680Y1115060D02*
D03*
Y1013460D02*
D03*
Y988060D02*
D03*
X817880Y1140460D02*
D03*
Y1115060D02*
D03*
Y1013460D02*
D03*
Y988060D02*
D03*
X988060Y872490D02*
D03*
X1089660D02*
D03*
X1115060D02*
D03*
X962660Y948690D02*
D03*
X988060D02*
D03*
X1089660D02*
D03*
X1115060D02*
D03*
X789940Y872490D02*
D03*
X891540D02*
D03*
X916940D02*
D03*
X764540Y948690D02*
D03*
X789940D02*
D03*
X891540D02*
D03*
X916940D02*
D03*
X1137920Y1013460D02*
D03*
Y1115060D02*
D03*
Y1140460D02*
D03*
X1061720Y988060D02*
D03*
Y1013460D02*
D03*
Y1115060D02*
D03*
Y1140460D02*
D03*
X1031240Y1013460D02*
D03*
Y1115060D02*
D03*
Y1140460D02*
D03*
X955040Y988060D02*
D03*
Y1013460D02*
D03*
Y1115060D02*
D03*
Y1140460D02*
D03*
X562610Y872490D02*
D03*
X664210D02*
D03*
X689610D02*
D03*
X537210Y948690D02*
D03*
X562610D02*
D03*
X664210D02*
D03*
X689610D02*
D03*
X421640Y1115060D02*
D03*
Y1013460D02*
D03*
Y988060D02*
D03*
X497840Y1140460D02*
D03*
Y1115060D02*
D03*
Y1013460D02*
D03*
Y988060D02*
D03*
X711200Y1013460D02*
D03*
Y1115060D02*
D03*
Y1140460D02*
D03*
X635000Y988060D02*
D03*
Y1013460D02*
D03*
Y1115060D02*
D03*
Y1140460D02*
D03*
X363220Y872490D02*
D03*
X464820D02*
D03*
X490220D02*
D03*
X337820Y948690D02*
D03*
X363220D02*
D03*
X464820D02*
D03*
X490220D02*
D03*
X314960Y1115060D02*
D03*
Y1013460D02*
D03*
Y988060D02*
D03*
X391160Y1140460D02*
D03*
Y1115060D02*
D03*
Y1013460D02*
D03*
Y988060D02*
D03*
X604520Y1013460D02*
D03*
Y1115060D02*
D03*
Y1140460D02*
D03*
X528320Y988060D02*
D03*
Y1013460D02*
D03*
Y1115060D02*
D03*
Y1140460D02*
D03*
X1010920Y632460D02*
D03*
Y657860D02*
D03*
Y759460D02*
D03*
Y784860D02*
D03*
X934720Y632460D02*
D03*
Y657860D02*
D03*
Y759460D02*
D03*
X1130300Y633730D02*
D03*
Y659130D02*
D03*
Y760730D02*
D03*
Y786130D02*
D03*
X1054100Y633730D02*
D03*
Y659130D02*
D03*
Y760730D02*
D03*
D115*
X1775460Y1124340D02*
D03*
X1701800D02*
D03*
X1482090Y1018930D02*
D03*
X1399540D02*
D03*
D116*
X962660Y872490D02*
D03*
X764540D02*
D03*
X537210D02*
D03*
X337820D02*
D03*
D117*
X938330Y92700D02*
D03*
X1738330D02*
D03*
Y1302700D02*
D03*
X138330D02*
D03*
Y92700D02*
D03*
D118*
X1409700Y436880D02*
D03*
X513080Y648970D02*
D03*
X466090D02*
D03*
X370840D02*
D03*
X321310Y650240D02*
D03*
X273050Y748030D02*
D03*
X419100Y749300D02*
D03*
X370840Y748030D02*
D03*
X1290320Y585470D02*
D03*
X385690Y527050D02*
D03*
X358140Y515620D02*
D03*
X557530Y514350D02*
D03*
X582930Y527050D02*
D03*
X530860Y571500D02*
D03*
X466090D02*
D03*
X414020Y538480D02*
D03*
X491490Y560070D02*
D03*
X430530D02*
D03*
X444500Y571500D02*
D03*
X405130D02*
D03*
X633730Y538480D02*
D03*
X659130Y548640D02*
D03*
X684530Y560070D02*
D03*
X709930Y571500D02*
D03*
X541020Y548640D02*
D03*
X550980Y560070D02*
D03*
X561340Y571500D02*
D03*
X607060Y612140D02*
D03*
X862330D02*
D03*
X914400Y608330D02*
D03*
X1282700Y786130D02*
D03*
X1281430Y598170D02*
D03*
X1409700Y567690D02*
D03*
Y304800D02*
D03*
X878840Y1205230D02*
D03*
X735330Y1215390D02*
D03*
X232410Y1228090D02*
D03*
X187960Y1210310D02*
D03*
X295910Y1226820D02*
D03*
X276860Y1210310D02*
D03*
X175260Y1225550D02*
D03*
X200660Y897890D02*
D03*
Y1050290D02*
D03*
X214630Y1013460D02*
D03*
X138430Y1002420D02*
D03*
X214630Y638810D02*
D03*
X229870Y1088390D02*
D03*
X200660Y880110D02*
D03*
X223670Y665330D02*
D03*
X200660Y622300D02*
D03*
X255270Y717550D02*
D03*
X236220Y701040D02*
D03*
X165100Y687070D02*
D03*
X564950Y674170D02*
D03*
X247650Y863600D02*
D03*
X236220Y915670D02*
D03*
X628650Y760730D02*
D03*
X742950Y759460D02*
D03*
X859790Y760730D02*
D03*
X628650Y737870D02*
D03*
X742950D02*
D03*
X859790D02*
D03*
Y685800D02*
D03*
X742950Y684530D02*
D03*
X628650Y683260D02*
D03*
X1027430Y318770D02*
D03*
X979170Y317500D02*
D03*
X932180D02*
D03*
X883920Y318770D02*
D03*
X836930Y317500D02*
D03*
X1009900Y506980D02*
D03*
X1314450Y290830D02*
D03*
Y422910D02*
D03*
Y554990D02*
D03*
X1299210Y880110D02*
D03*
X1510030Y848360D02*
D03*
X1588070Y844550D02*
D03*
X1540640Y796420D02*
D03*
X1605280Y529590D02*
D03*
X1573530D02*
D03*
X972820Y759460D02*
D03*
X1093470Y749300D02*
D03*
X972820Y683260D02*
D03*
X1093470Y685800D02*
D03*
Y727710D02*
D03*
X972820Y736600D02*
D03*
X1144270Y737870D02*
D03*
Y614680D02*
D03*
X1148080Y255270D02*
D03*
X557530Y797560D02*
D03*
X322580Y798830D02*
D03*
X1106170Y547370D02*
D03*
X1070230Y316610D02*
D03*
X1159510Y708660D02*
D03*
X1173860Y996060D02*
D03*
D119*
X1773360Y999490D02*
D03*
X1642110D02*
D03*
X1563370Y962660D02*
D03*
M02*
