M48
;Layer_Color=9474304
;FILE_FORMAT=4:4
METRIC,LZ
;TYPE=PLATED
T1F00S00C0.3000
T2F00S00C0.7000
T3F00S00C0.8000
T4F00S00C0.9000
T5F00S00C0.9200
T6F00S00C1.0000
T7F00S00C1.1000
T8F00S00C1.3000
T9F00S00C1.4000
T10F00S00C2.3000
T11F00S00C4.2000
%
T01
X0035814Y0051562
X0038569Y0052705
X0041402Y0053848
X0043053Y0056007
X004445Y005715
X0046609
X0049149Y0056007
X0053086Y005715
X0056134
X0055098Y0056007
X0054102Y0054864
X0055753Y0051435
X0058293Y0052705
X0063373Y0053848
X0065913Y0054864
X0068453Y0056007
X0070993Y005715
X0040513
X010099Y0050698
X0110617Y0054737
X0107023Y0031661
X0102743Y0031877
X0097917Y003175
X0093218
X0088392Y0031877
X0083693Y003175
X0114808Y0025527
X0131445Y0029083
X014097Y003048
Y0043688
X0131445Y0042291
Y0055499
X0129032Y0058547
X0128143Y0059817
X014097Y0056769
X0157353Y0052959
X0160528
X0154064Y0079642
X0151003Y0084836
X0158807Y0084455
X0129921Y0088011
X012827Y0078613
X0114427Y0073787
X0115951Y0070866
X0109347Y0072771
Y007493
Y006858
X0114427Y0061468
X009144Y0060833
X0086233Y0061214
X0085979Y006858
Y0073787
Y0076073
X0097282Y0075946
Y007366
Y0068326
X0117386Y0099606
X0074295Y0075946
Y0073787
Y0068453
X0062865Y0068326
Y0073787
Y0076073
X0055753Y0079756
X0056495Y0067417
X0051308Y0064897
X0046609
X004191Y007493
X0060706Y0061214
X0037084Y0064897
X0032131Y0065024
X0022367Y0066533
X0021463Y0063881
X0020066Y006223
X001651Y0068707
X0023622Y0070104
X0025527Y0071755
X0027305Y0074803
X0037084
X0032258Y0079883
X0024765Y008636
X0020066Y0088011
Y0089789
X0023622Y0091567
X0021463Y0101346
X0020066Y0105029
X0022987Y0108839
X0023241Y0122809
X0017526Y0122555
X0018796Y0121031
X0027686
X0029591Y0122682
X0013843Y0100242
X0073533Y0121539
X0087884Y0120523
T02
X0164211Y0099949
X0177336
X0156337Y0096266
T03
X0142875Y0089789
X0148209
X0111506Y0087249
X0108966
Y0094869
X0111506
X0113792Y0098806
X0106172
X0103124
X0095504
X0092456
X0091694Y0094869
X0089154
X0096266
X0098806
Y0087249
X0096266
X0091694
X0089154
X00895985Y0078486
Y0075946
X0093472
Y0078486
X0101092
Y0075946
X010541Y0076073
Y0078613
X011303
Y0076073
Y0065913
Y0063373
X010541
Y0065913
X0101092Y0065786
Y0063246
X0093472
Y0065786
X00895985
Y0063246
X00819785
Y0065786
Y0075946
Y0078486
X0081788Y0098806
X0084836
X0078994Y0094869
X0076454
X0074168Y0098806
X007112
X0068961Y0094869
X0066421
X00635Y0098806
X0060452
X0052832
X0049784
X0049022Y0094869
X0046482
X0053721
X0056261
Y0087249
X0053721
X0049022
X0046482
X0042164Y0098806
X0066421Y0087249
X0068961
X0076454
X0078994
X0077851Y0078486
Y0075946
X0070231
Y0078486
X0066167
Y0075946
X0058547
Y0078486
Y0065786
Y0063246
X0066167
Y0065786
X0070231
Y0063246
X0077851
Y0065786
X0036322Y0087249
X0033782
Y0094869
X0036322
X0039116Y0098806
X0031496
Y0101346
X0039116
Y0111506
Y0114046
X0031496
Y0111506
X0032258Y0121285
X0036449
X0040894
X0042164Y0114046
Y0111506
X0049784
Y0114046
X0052832
Y0111506
X0060452
Y0114046
X00635
Y0111506
X007112
Y0114046
X0074168
Y0111506
Y0101346
X007112
X00635
X0060452
X0052832
X0049784
X0042164
X0081788
X0084836
X0092456
X0095504
X0103124
X0106172
X0113792
Y0111506
Y0114046
X0106172
Y0111506
X0103124
Y0114046
X0095504
Y0111506
X0092456
Y0114046
X0084836
Y0111506
X0081788
Y0114046
X0081407Y0123698
X0085344
X0089154
X0154051Y011176
X0158877
T04
X0132842Y0075946
X0143002
X0145542
X0027686Y0115824
Y0118364
X0025146
Y0115824
X0022606
Y0118364
X0020066
Y0115824
X0017526
Y0118364
X0044577Y0126111
Y0128651
X0047117
Y0126111
X0049657
Y0128651
X0052197
Y0126111
X0054737
Y0128651
X0061849
Y0126111
X0064389
Y0128651
X0066929
Y0126111
X0069469
Y0128651
X0072009
Y0126111
T05
X0026055Y0127905
Y0129905
X0028555
Y0127905
T06
X0132842Y0068326
X0143002
X0145542
X0111887Y0082169
X0109347
X0106807
X0099822
X0097282
X0094742
X0088519
X0085979
X0083439
X0076835Y0082296
X0074295
X0071755
X0065405
X0062865
X0060325
T07
X0121412Y000508
Y000762
X0123952
Y000508
X0126492
Y000762
X0129032
Y000508
X0131572
Y000762
Y0015748
X0129032
X0126492
X0123952
X0121412
Y0018288
X0123952
X0126492
X0129032
X0131572
X0118872
Y0015748
X0116332
X0113792
Y0018288
X0111252
Y0015748
X0108712
Y0018288
X0116332
Y000762
X0118872
Y000508
X0116332
X0113792
Y000762
X0111252
Y000508
X0108712
Y000762
X0080645Y0007493
Y0004953
X0080772Y0015494
Y0018034
X0078232
Y0015494
X0075692
Y0018034
X0073152
Y0015494
X0070612
X0068072
X0065532
Y0018034
X0062992
X0060452
X0057912
Y0015494
X0060452
X0062992
X0068072Y0018034
X0070612
X0070485Y0007493
X0073025
X0075565
X0078105
Y0004953
X0075565
X0073025
X0070485
X0067945
X0065405
Y0007493
X0062865
X0060325
X0057785
Y0004953
X0060325
X0062865
X0067945Y0007493
X0047117
Y0004953
X0044577
Y0007493
X0042037
Y0004953
Y0015621
X0044577
X0047117
Y0018161
X0044577
X0042037
X0039497
Y0015621
X0036957
X0034417
X0031877
Y0018161
X0029337
X0026797
X0024257
Y0015621
X0026797
X0029337
X0034417Y0018161
X0036957
Y0007493
X0039497
Y0004953
X0036957
X0034417
X0031877
Y0007493
X0029337
X0026797
X0024257
Y0004953
X0026797
X0029337
X0034417Y0007493
X003429Y0027305
X003175
X002921
Y0029845
X002667
Y0027305
X002413
Y0029845
X003175
X003429
X003683
Y0027305
X003937
Y0029845
X00381Y0037211
X003556
X003302
X003048
X002794
X00254
X002286
Y0041656
X00254
X002794
X003048
X003302
X003556
X00381
X0037973Y0046609
X0035433
X0032893
X0030353
X0027813
X0025273
X0022733
X0009525Y0045847
Y0048387
Y0050927
X0006985
Y0048387
Y0045847
Y0053467
X0009525
Y0056007
X0006985
Y0058547
X0009525
X0040513Y0046609
X0043053
X0045593
X0048133
X0050673
X0053213
X0055753
X0058293
X0060833
X0063373
X0065913
X0068453
X0070993
X007112Y0041656
X006858
X006604
X00635
X006096
X005842
X005588
X005334
X00508
X004826
X004572
X004318
X004064
Y0037211
X004318
X004572
X004826
X00508
X005334
X005588
X005842
X006096
X00635
X006604
X006858
X007112
X006985Y0029845
X006731
X006477
Y0027305
X006223
Y0029845
X005969
Y0027305
X005715
Y0029845
X005461
Y0027305
X005207
Y0029845
X004953
X004699
X004445
X004191
Y0027305
X004445
X004699
X004953
X006731
X006985
X007239
Y0029845
X008636Y0053213
X00889
X009144
X009398
X009652
X009906
X0107442Y0041402
Y0038862
X0131572Y0038227
Y0035687
X0158877Y0070485
Y0073025
X011811Y0083566
Y0086106
X0009525Y0086487
X0006985
Y0083947
X0009525
Y0081407
X0006985
Y0078867
X0009525
Y0076327
X0006985
Y0073787
X0009525
Y0071247
Y0068707
Y0066167
Y0063627
Y0061087
X0006985
Y0063627
Y0066167
Y0068707
Y0071247
Y0089027
X0009525
Y0091567
X0006985
Y0094107
X0009525
X0122682Y012065
X0125222
T08
X0164465Y0037338
X0184785
X0177165Y0057658
X0172085
T09
X0142406Y0021844
X0141898Y0036957
X0139954Y0101893
X0148209
X017018Y0112434
X0177546
T10
X0021285Y0132615
X0033325
T11
X0173833Y000927
X0093833
X0013833
Y013027
X0173833
M30
